<?xml version="1.0" encoding="UTF-8"?>
<svg xmlns="http://www.w3.org/2000/svg" xmlns:xlink="http://www.w3.org/1999/xlink" width="45px" height="45px" viewBox="0 0 45 45" version="1.1">
<g id="surface1">
<path style=" stroke:none;fill-rule:nonzero;fill:rgb(47.450981%,32.156864%,70.19608%);fill-opacity:1;" d="M 22.070312 21.074219 L 18.667969 21.074219 L 18.667969 15.378906 L 22.703125 15.378906 C 24.894531 15.378906 26.140625 16.359375 26.140625 18.128906 C 26.140625 20.015625 24.691406 21.074219 22.066406 21.074219 Z M 22.675781 23.335938 L 18.667969 23.335938 L 18.667969 29.613281 L 22.851562 29.613281 C 25.589844 29.613281 27.039062 28.515625 27.039062 26.453125 C 27.039062 24.390625 25.546875 23.335938 22.675781 23.335938 Z M 45 21.355469 L 45 23.640625 C 42.886719 23.84375 41.59375 25.410156 40.828125 27.890625 C 40.0625 30.367188 39.957031 33.398438 40.039062 35.742188 C 40.125 38.179688 38.222656 40.429688 35.65625 40.429688 L 9.347656 40.429688 C 6.777344 40.429688 4.878906 38.179688 4.964844 35.742188 C 5.046875 33.398438 4.941406 30.367188 4.175781 27.890625 C 3.410156 25.410156 2.113281 23.84375 0 23.640625 L 0 21.355469 C 2.113281 21.152344 3.410156 19.585938 4.175781 17.105469 C 4.941406 14.628906 5.046875 11.597656 4.964844 9.253906 C 4.878906 6.816406 6.777344 4.566406 9.347656 4.566406 L 35.65625 4.566406 C 38.226562 4.566406 40.125 6.816406 40.039062 9.253906 C 39.957031 11.597656 40.0625 14.628906 40.828125 17.105469 C 41.59375 19.585938 42.886719 21.152344 45 21.355469 Z M 30.136719 26.636719 C 30.136719 24.097656 28.351562 22.265625 25.695312 21.972656 L 25.695312 21.867188 C 27.648438 21.550781 29.175781 19.738281 29.175781 17.71875 C 29.175781 14.835938 26.902344 12.957031 23.4375 12.957031 L 15.636719 12.957031 L 15.636719 32.03125 L 23.476562 32.03125 C 27.632812 32.03125 30.136719 29.996094 30.136719 26.636719 Z M 30.136719 26.636719 "/>
</g>
</svg>
