<?xml version="1.0" encoding="UTF-8"?>
<svg xmlns="http://www.w3.org/2000/svg" xmlns:xlink="http://www.w3.org/1999/xlink" width="45px" height="45px" viewBox="0 0 45 45" version="1.1">
<g id="surface1">
<path style=" stroke:none;fill-rule:nonzero;fill:rgb(0%,34.901962%,61.176473%);fill-opacity:1;" d="M 41.753906 33.6875 C 42.066406 33.144531 42.261719 32.535156 42.261719 31.984375 L 42.261719 12.929688 C 42.261719 12.382812 42.066406 11.769531 41.753906 11.230469 L 22.304688 22.457031 Z M 41.753906 33.6875 "/>
<path style=" stroke:none;fill-rule:nonzero;fill:rgb(0%,26.666668%,50.980395%);fill-opacity:1;" d="M 24.03125 44.503906 L 40.53125 34.976562 C 41.007812 34.703125 41.441406 34.230469 41.753906 33.6875 L 22.304688 22.457031 L 2.855469 33.6875 C 3.167969 34.230469 3.601562 34.703125 4.074219 34.976562 L 20.574219 44.503906 C 21.527344 45.050781 23.082031 45.050781 24.03125 44.503906 Z M 24.03125 44.503906 "/>
<path style=" stroke:none;fill-rule:nonzero;fill:rgb(39.607844%,60.392159%,82.352942%);fill-opacity:1;" d="M 41.753906 11.230469 C 41.441406 10.6875 41.007812 10.210938 40.53125 9.9375 L 24.03125 0.410156 C 23.082031 -0.136719 21.527344 -0.136719 20.574219 0.410156 L 4.074219 9.9375 C 3.125 10.488281 2.347656 11.832031 2.347656 12.929688 L 2.347656 31.984375 C 2.347656 32.53125 2.542969 33.144531 2.855469 33.6875 L 22.304688 22.457031 Z M 41.753906 11.230469 "/>
<path style=" stroke:none;fill-rule:nonzero;fill:rgb(100%,100%,100%);fill-opacity:1;" d="M 22.304688 9.152344 C 14.96875 9.152344 9 15.121094 9 22.457031 C 9 29.792969 14.96875 35.761719 22.304688 35.761719 C 27.039062 35.761719 31.453125 33.214844 33.824219 29.113281 L 28.070312 25.78125 C 26.878906 27.835938 24.671875 29.109375 22.304688 29.109375 C 18.636719 29.109375 15.652344 26.125 15.652344 22.457031 C 15.652344 18.789062 18.636719 15.804688 22.304688 15.804688 C 24.671875 15.804688 26.882812 17.082031 28.066406 19.132812 L 33.824219 15.800781 C 31.453125 11.699219 27.039062 9.152344 22.304688 9.152344 Z M 32.652344 20.238281 L 32.652344 21.71875 L 31.175781 21.71875 L 31.175781 23.195312 L 32.652344 23.195312 L 32.652344 24.675781 L 34.128906 24.675781 L 34.128906 23.195312 L 35.609375 23.195312 L 35.609375 21.71875 L 34.128906 21.71875 L 34.128906 20.238281 Z M 38.195312 20.238281 L 38.195312 21.71875 L 36.71875 21.71875 L 36.71875 23.195312 L 38.195312 23.195312 L 38.195312 24.675781 L 39.675781 24.675781 L 39.675781 23.195312 L 41.152344 23.195312 L 41.152344 21.71875 L 39.675781 21.71875 L 39.675781 20.238281 Z M 38.195312 20.238281 "/>
</g>
</svg>
