<?xml version="1.0" encoding="UTF-8"?>
<svg xmlns="http://www.w3.org/2000/svg" xmlns:xlink="http://www.w3.org/1999/xlink" width="45px" height="45px" viewBox="0 0 45 45" version="1.1">
<g id="surface1">
<path style=" stroke:none;fill-rule:nonzero;fill:rgb(39.607844%,60.392159%,82.745099%);fill-opacity:1;" d="M 40.570312 10.792969 L 23.589844 1.019531 C 23.308594 0.84375 22.921875 0.773438 22.5 0.773438 C 22.078125 0.773438 21.691406 0.878906 21.410156 1.019531 L 4.535156 10.828125 C 3.9375 11.179688 3.515625 12.058594 3.515625 12.726562 L 3.515625 32.308594 C 3.515625 32.695312 3.585938 33.152344 3.867188 33.539062 L 41.414062 11.742188 C 41.203125 11.320312 40.886719 11.003906 40.570312 10.792969 Z M 40.570312 10.792969 "/>
<path style=" stroke:none;fill-rule:nonzero;fill:rgb(1.176471%,34.901962%,61.176473%);fill-opacity:1;" d="M 3.761719 33.503906 C 3.9375 33.785156 4.183594 34.03125 4.429688 34.171875 L 21.375 43.980469 C 21.65625 44.15625 22.042969 44.226562 22.464844 44.226562 C 22.886719 44.226562 23.273438 44.121094 23.554688 43.980469 L 40.429688 34.171875 C 41.027344 33.820312 41.449219 32.941406 41.449219 32.273438 L 41.449219 12.691406 C 41.449219 12.375 41.414062 12.023438 41.238281 11.707031 Z M 3.761719 33.503906 "/>
<path style=" stroke:none;fill-rule:nonzero;fill:rgb(100%,100%,100%);fill-opacity:1;" d="M 29.988281 26.753906 C 28.511719 29.355469 25.699219 31.113281 22.5 31.113281 C 17.753906 31.113281 13.886719 27.246094 13.886719 22.5 C 13.886719 17.753906 17.753906 13.886719 22.5 13.886719 C 25.699219 13.886719 28.511719 15.644531 29.988281 18.28125 L 34.558594 15.644531 C 32.167969 11.460938 27.667969 8.613281 22.5 8.613281 C 14.835938 8.613281 8.613281 14.835938 8.613281 22.5 C 8.613281 30.164062 14.835938 36.386719 22.5 36.386719 C 27.632812 36.386719 32.132812 33.574219 34.523438 29.425781 Z M 29.988281 26.753906 "/>
</g>
</svg>
