<?xml version="1.0" encoding="UTF-8"?>
<svg xmlns="http://www.w3.org/2000/svg" xmlns:xlink="http://www.w3.org/1999/xlink" width="45px" height="45px" viewBox="0 0 45 45" version="1.1">
<g id="surface1">
<path style=" stroke:none;fill-rule:nonzero;fill:rgb(0%,76.862746%,80.000001%);fill-opacity:1;" d="M 20.878906 0.0546875 C 20.710938 0.0703125 20.179688 0.132812 19.710938 0.191406 C 17.820312 0.40625 15.675781 0.972656 13.796875 1.765625 C 6.992188 4.609375 1.871094 10.84375 0.457031 18 C 0.125 19.703125 0.046875 20.539062 0.046875 22.5 C 0.046875 25.03125 0.296875 26.773438 0.964844 28.980469 C 3.140625 36.199219 8.8125 41.859375 16.046875 44.046875 C 18.226562 44.703125 19.980469 44.953125 22.5 44.953125 C 25.03125 44.953125 26.773438 44.703125 28.980469 44.035156 C 36.199219 41.859375 41.859375 36.1875 44.046875 28.953125 C 44.703125 26.773438 44.953125 25.019531 44.953125 22.5 C 44.953125 21.429688 44.902344 20.207031 44.839844 19.753906 C 44.109375 14.554688 41.964844 10.179688 38.394531 6.605469 C 34.828125 3.058594 30.472656 0.910156 25.378906 0.179688 C 24.675781 0.0820312 21.429688 -0.0117188 20.878906 0.0546875 Z M 13.542969 14.226562 C 14.023438 14.371094 14.246094 14.507812 14.570312 14.832031 C 15.199219 15.472656 15.34375 15.820312 15.34375 16.785156 C 15.34375 17.503906 15.316406 17.640625 15.101562 18.019531 C 14.6875 18.71875 13.726562 19.367188 13.058594 19.386719 C 12.589844 19.394531 12.609375 19.1875 13.121094 18.648438 C 13.804688 17.9375 13.90625 17.667969 13.90625 16.605469 C 13.894531 15.578125 13.769531 15.226562 13.292969 14.941406 C 12.898438 14.695312 12.464844 14.714844 11.835938 15.011719 C 10.195312 15.796875 8.421875 18.40625 7.730469 21.078125 C 6.8125 24.640625 8.441406 27.496094 11.125 27.007812 C 11.90625 26.863281 13.382812 26.109375 14.023438 25.515625 C 14.554688 25.03125 14.554688 25.019531 14.605469 24.417969 C 14.722656 23.15625 15.613281 21.898438 16.804688 21.3125 C 17.351562 21.042969 17.488281 21.015625 18.226562 21.015625 C 18.925781 21.015625 19.089844 21.050781 19.429688 21.238281 C 20.519531 21.863281 20.292969 23.308594 19.117188 23.308594 C 18.433594 23.308594 18.082031 22.957031 18.578125 22.769531 C 19.0625 22.589844 18.882812 21.914062 18.316406 21.761719 C 17.648438 21.589844 16.894531 22.042969 16.417969 22.90625 C 15.839844 23.949219 15.8125 25.191406 16.363281 25.757812 C 16.894531 26.324219 17.558594 25.875 18.074219 24.585938 C 18.339844 23.929688 18.730469 23.578125 19.179688 23.578125 C 19.574219 23.578125 19.648438 23.824219 19.476562 24.5625 C 19.222656 25.703125 19.394531 26 20.105469 25.648438 C 20.339844 25.542969 20.726562 25.289062 20.960938 25.109375 L 21.402344 24.757812 L 21.699219 23.203125 C 22.023438 21.457031 22.148438 21.222656 22.816406 21.097656 C 23.453125 20.976562 23.597656 21.292969 23.363281 22.292969 L 23.238281 22.851562 L 23.707031 22.375 C 24.8125 21.238281 26.171875 20.683594 26.640625 21.148438 C 26.890625 21.402344 26.863281 21.71875 26.503906 22.832031 C 26.335938 23.363281 26.097656 24.203125 25.992188 24.679688 C 25.832031 25.398438 25.820312 25.570312 25.910156 25.6875 C 26.199219 26.027344 27.082031 25.675781 27.863281 24.910156 L 28.324219 24.460938 L 28.378906 23.460938 C 28.429688 22.308594 28.539062 21.898438 28.84375 21.527344 C 29.132812 21.1875 29.65625 20.933594 29.933594 21.007812 C 30.210938 21.078125 30.210938 21.347656 29.960938 22.140625 C 29.609375 23.230469 29.648438 25.738281 30.007812 25.738281 C 30.152344 25.738281 30.886719 24.964844 31.355469 24.316406 L 31.707031 23.839844 L 31.429688 23.554688 C 30.941406 23.039062 30.824219 22.707031 30.824219 21.871094 C 30.824219 21.257812 30.871094 21.035156 31.023438 20.734375 C 31.273438 20.269531 31.671875 19.925781 32.140625 19.789062 C 32.632812 19.636719 33.246094 19.890625 33.496094 20.339844 C 33.75 20.796875 33.6875 21.824219 33.363281 22.527344 L 33.128906 23.039062 L 33.445312 23.039062 C 33.875 23.039062 34.046875 22.933594 34.820312 22.203125 C 35.226562 21.816406 35.695312 21.484375 36.042969 21.320312 C 37.421875 20.671875 39.042969 21.003906 39.3125 21.996094 C 39.535156 22.789062 39.042969 23.347656 38.175781 23.28125 C 37.558594 23.238281 37.441406 23.074219 37.800781 22.769531 C 38.449219 22.230469 37.800781 21.539062 36.871094 21.789062 C 36.367188 21.925781 35.800781 22.492188 35.503906 23.148438 C 34.910156 24.460938 35.226562 26.011719 36.082031 26.011719 C 36.421875 26.011719 37.027344 25.335938 37.261719 24.679688 C 37.539062 23.921875 38.125 23.445312 38.566406 23.617188 C 38.808594 23.707031 38.824219 23.949219 38.671875 24.714844 C 38.5 25.550781 38.476562 26.335938 38.609375 26.695312 C 38.664062 26.828125 38.824219 27.082031 38.980469 27.25 C 39.265625 27.574219 39.277344 27.691406 39.03125 27.847656 C 38.917969 27.925781 38.761719 27.890625 38.386719 27.683594 C 37.863281 27.414062 37.414062 26.925781 37.25 26.46875 L 37.152344 26.199219 L 36.792969 26.46875 C 36.585938 26.613281 36.261719 26.773438 36.070312 26.828125 C 35.324219 27.027344 34.40625 26.515625 33.976562 25.648438 C 33.804688 25.316406 33.75 24.335938 33.875 23.957031 C 33.949219 23.75 33.949219 23.75 33.660156 23.894531 C 33.507812 23.976562 33.183594 24.066406 32.929688 24.09375 C 32.515625 24.136719 32.453125 24.183594 32.039062 24.707031 C 31.457031 25.433594 30.417969 26.414062 29.996094 26.621094 C 29.097656 27.070312 28.800781 26.945312 28.566406 26.019531 L 28.402344 25.398438 L 28.015625 25.738281 C 27.523438 26.171875 26.53125 26.695312 25.964844 26.820312 C 25.425781 26.9375 24.847656 26.765625 24.613281 26.40625 C 24.265625 25.867188 24.382812 24.722656 24.9375 23.183594 C 25.351562 22.042969 25.054688 22.023438 24.011719 23.113281 C 23.238281 23.929688 22.90625 24.515625 22.691406 25.425781 C 22.464844 26.371094 22.195312 26.710938 21.582031 26.855469 C 21.214844 26.9375 21.042969 26.710938 21.113281 26.21875 L 21.167969 25.820312 L 20.824219 26.054688 C 20.339844 26.386719 19.726562 26.695312 19.304688 26.8125 C 18.882812 26.925781 18.324219 26.800781 18.1875 26.566406 C 17.945312 26.15625 17.945312 26.15625 17.570312 26.449219 C 16.75 27.117188 15.578125 26.925781 14.984375 26.046875 L 14.796875 25.765625 L 14.203125 26.316406 C 12.492188 27.882812 10.351562 28.582031 8.765625 28.097656 C 6.75 27.488281 5.632812 25.757812 5.652344 23.265625 C 5.660156 20.761719 6.769531 18.125 8.632812 16.171875 C 9.683594 15.074219 10.675781 14.425781 11.683594 14.183594 C 12.410156 14.003906 12.851562 14.011719 13.542969 14.230469 Z M 13.542969 14.226562 "/>
<path style=" stroke:none;fill-rule:nonzero;fill:rgb(0%,76.862746%,80.000001%);fill-opacity:1;" d="M 31.789062 20.628906 C 31.589844 20.824219 31.664062 21.617188 31.914062 22.121094 C 32.039062 22.382812 32.175781 22.589844 32.21875 22.589844 C 32.257812 22.589844 32.335938 22.382812 32.398438 22.128906 C 32.625 21.195312 32.21875 20.195312 31.789062 20.628906 Z M 31.789062 20.628906 "/>
</g>
</svg>
