<?xml version="1.0" encoding="UTF-8"?>
<svg xmlns="http://www.w3.org/2000/svg" xmlns:xlink="http://www.w3.org/1999/xlink" width="45px" height="45px" viewBox="0 0 45 45" version="1.1">
<g id="surface1">
<path style=" stroke:none;fill-rule:nonzero;fill:rgb(8.235294%,44.705883%,71.372551%);fill-opacity:1;" d="M 6.613281 40.121094 L 3.078125 0.476562 L 41.921875 0.476562 L 38.382812 40.117188 L 22.476562 44.523438 Z M 6.613281 40.121094 "/>
<path style=" stroke:none;fill-rule:nonzero;fill:rgb(20%,66.274512%,86.274511%);fill-opacity:1;" d="M 22.5 41.15625 L 35.351562 37.589844 L 38.375 3.714844 L 22.5 3.714844 Z M 22.5 41.15625 "/>
<path style=" stroke:none;fill-rule:nonzero;fill:rgb(100%,100%,100%);fill-opacity:1;" d="M 22.5 18.082031 L 28.933594 18.082031 L 29.378906 13.101562 L 22.5 13.101562 L 22.5 8.238281 L 34.691406 8.238281 L 34.578125 9.542969 L 33.382812 22.941406 L 22.5 22.941406 Z M 22.5 18.082031 "/>
<path style=" stroke:none;fill-rule:nonzero;fill:rgb(92.156863%,92.156863%,92.156863%);fill-opacity:1;" d="M 22.527344 30.707031 L 22.507812 30.714844 L 17.09375 29.253906 L 16.746094 25.375 L 11.867188 25.375 L 12.546875 33.007812 L 22.507812 35.773438 L 22.527344 35.769531 Z M 22.527344 30.707031 "/>
<path style=" stroke:none;fill-rule:nonzero;fill:rgb(100%,100%,100%);fill-opacity:1;" d="M 28.519531 22.738281 L 27.933594 29.25 L 22.511719 30.710938 L 22.511719 35.773438 L 32.480469 33.007812 L 32.554688 32.1875 L 33.398438 22.738281 Z M 28.519531 22.738281 "/>
<path style=" stroke:none;fill-rule:nonzero;fill:rgb(92.156863%,92.156863%,92.156863%);fill-opacity:1;" d="M 22.515625 8.238281 L 22.515625 13.101562 L 10.773438 13.101562 L 10.675781 12.007812 L 10.453125 9.542969 L 10.335938 8.238281 Z M 22.5 18.082031 L 22.5 22.945312 L 17.152344 22.945312 L 17.054688 21.851562 L 16.835938 19.386719 L 16.71875 18.082031 Z M 22.5 18.082031 "/>
</g>
</svg>
