<?xml version="1.0" encoding="UTF-8"?>
<svg xmlns="http://www.w3.org/2000/svg" xmlns:xlink="http://www.w3.org/1999/xlink" width="45px" height="45px" viewBox="0 0 45 45" version="1.1">
<g id="surface1">
<path style=" stroke:none;fill-rule:nonzero;fill:rgb(21.960784%,16.470589%,14.117648%);fill-opacity:1;" d="M 20.984375 0.734375 L 23.929688 0.734375 C 32.269531 1.597656 38.34375 5.75 42.144531 13.199219 C 43.277344 15.6875 43.953125 18.28125 44.175781 20.984375 L 44.175781 23.929688 C 43.316406 32.269531 39.164062 38.34375 31.714844 42.144531 C 29.226562 43.277344 26.632812 43.953125 23.929688 44.175781 L 20.984375 44.175781 C 12.644531 43.316406 6.570312 39.164062 2.769531 31.714844 C 1.636719 29.226562 0.957031 26.632812 0.734375 23.929688 L 0.734375 20.984375 C 1.597656 12.644531 5.75 6.570312 13.199219 2.769531 C 15.6875 1.636719 18.28125 0.957031 20.984375 0.734375 Z M 20.984375 0.734375 "/>
<path style=" stroke:none;fill-rule:nonzero;fill:rgb(88.235295%,84.313726%,79.607844%);fill-opacity:1;" d="M 39.15625 22.28125 C 39.066406 19.96875 38.460938 17.804688 37.339844 15.792969 C 37.5625 15.125 37.636719 14.417969 37.558594 13.714844 C 37.378906 13.273438 37.046875 13.027344 36.5625 12.980469 C 35.8125 12.9375 35.0625 12.921875 34.3125 12.9375 C 34.46875 12.867188 34.640625 12.824219 34.832031 12.808594 C 33.851562 11.324219 32.621094 10.019531 31.195312 8.957031 C 29.375 7.453125 27.269531 6.703125 24.878906 6.707031 C 22.992188 6.746094 21.230469 7.25 19.601562 8.21875 C 16.152344 10.191406 13.296875 12.816406 11.03125 16.097656 C 10.328125 16.175781 9.621094 16.21875 8.914062 16.226562 C 5.234375 15.648438 4.167969 17.0625 5.710938 20.464844 C 6.335938 21.714844 6.914062 22.984375 7.441406 24.273438 C 7.363281 25.3125 7.304688 26.347656 7.269531 27.390625 C 6.148438 29.195312 5.09375 31.042969 4.109375 32.925781 C 4.050781 33.042969 3.996094 33.042969 3.9375 32.925781 C 1.113281 27.636719 0.492188 22.097656 2.074219 16.3125 C 4.457031 9.203125 9.203125 4.457031 16.3125 2.078125 C 24.03125 0.046875 30.894531 1.632812 36.910156 6.835938 C 42.414062 12.21875 44.5625 18.722656 43.355469 26.351562 C 42.367188 31.289062 39.988281 35.398438 36.214844 38.683594 C 36.027344 38.847656 35.824219 38.964844 35.609375 39.027344 C 35.070312 37.417969 35.171875 35.847656 35.914062 34.3125 C 37.007812 32.523438 37.882812 30.605469 38.511719 28.601562 C 39.128906 26.519531 39.34375 24.414062 39.15625 22.28125 Z M 39.15625 22.28125 "/>
<path style=" stroke:none;fill-rule:nonzero;fill:rgb(98.823529%,98.823529%,98.823529%);fill-opacity:1;" d="M 31.195312 8.957031 C 32.621094 10.019531 33.851562 11.324219 34.832031 12.808594 C 34.652344 12.820312 34.476562 12.863281 34.3125 12.9375 C 32.832031 13.039062 31.371094 13.359375 29.984375 13.890625 C 28.628906 13.957031 27.273438 13.996094 25.917969 14.019531 C 25.574219 14.160156 25.226562 14.171875 24.878906 14.0625 C 23.902344 14.019531 23.097656 13.632812 22.457031 12.894531 C 21.496094 12.308594 20.488281 12.191406 19.429688 12.546875 C 18.679688 13.0625 18.40625 13.765625 18.605469 14.667969 C 19.066406 15.484375 19.195312 16.351562 18.996094 17.265625 C 18.914062 17.402344 18.839844 17.546875 18.777344 17.699219 C 16.371094 19.898438 14.222656 22.367188 12.375 25.054688 C 11.824219 26.007812 11.390625 27.023438 11.078125 28.082031 C 10.90625 29.582031 11.523438 30.605469 12.9375 31.15625 C 13.714844 31.464844 14.53125 31.667969 15.359375 31.761719 C 14.667969 32.285156 13.886719 32.460938 13.023438 32.28125 C 11.933594 32.089844 10.871094 31.753906 9.867188 31.285156 C 8.832031 33.152344 7.863281 35.058594 6.96875 36.996094 C 6.390625 36.34375 5.828125 35.679688 5.28125 35.003906 C 5.222656 34.898438 5.222656 34.769531 5.28125 34.660156 C 6.015625 32.925781 6.824219 31.222656 7.703125 29.554688 C 8.152344 30.351562 8.800781 30.886719 9.648438 31.15625 C 8.972656 30.503906 8.550781 29.710938 8.394531 28.773438 C 8.234375 27.289062 8.382812 25.789062 8.828125 24.359375 C 10.5625 18.792969 13.695312 14.191406 18.21875 10.558594 C 20.167969 9.164062 22.332031 8.269531 24.707031 7.875 C 26.957031 7.722656 29.121094 8.082031 31.199219 8.957031 Z M 31.195312 8.957031 "/>
<path style=" stroke:none;fill-rule:nonzero;fill:rgb(21.960784%,16.470589%,14.117648%);fill-opacity:1;" d="M 24.878906 14.0625 C 23.667969 14.496094 22.480469 15 21.332031 15.578125 C 20.542969 16.164062 19.777344 16.785156 19.039062 17.4375 C 19 17.390625 18.984375 17.324219 18.996094 17.265625 C 19.195312 16.351562 19.066406 15.484375 18.605469 14.667969 C 18.40625 13.765625 18.679688 13.0625 19.429688 12.546875 C 20.488281 12.191406 21.496094 12.308594 22.457031 12.894531 C 23.097656 13.632812 23.902344 14.019531 24.878906 14.0625 Z M 24.878906 14.0625 "/>
<path style=" stroke:none;fill-rule:nonzero;fill:rgb(21.568628%,16.078432%,13.725491%);fill-opacity:1;" d="M 34.3125 12.9375 C 35.0625 12.921875 35.8125 12.9375 36.5625 12.980469 C 37.046875 13.027344 37.378906 13.273438 37.558594 13.714844 C 37.636719 14.417969 37.5625 15.125 37.339844 15.792969 C 36.8125 17.273438 36.003906 18.585938 34.917969 19.730469 C 34.160156 20.242188 33.351562 20.332031 32.496094 19.992188 C 30.597656 19.425781 29.082031 18.34375 27.953125 16.746094 C 27.59375 15.835938 27.835938 15.128906 28.6875 14.625 C 29.121094 14.378906 29.554688 14.136719 29.984375 13.890625 C 31.371094 13.359375 32.832031 13.039062 34.3125 12.9375 Z M 34.3125 12.9375 "/>
<path style=" stroke:none;fill-rule:nonzero;fill:rgb(53.333336%,45.09804%,38.82353%);fill-opacity:1;" d="M 29.984375 13.890625 C 29.554688 14.136719 29.121094 14.378906 28.6875 14.625 C 27.835938 15.128906 27.59375 15.835938 27.953125 16.746094 C 29.082031 18.34375 30.597656 19.425781 32.496094 19.992188 C 33.351562 20.332031 34.160156 20.242188 34.917969 19.730469 C 36.003906 18.585938 36.8125 17.273438 37.339844 15.792969 C 38.457031 17.804688 39.066406 19.96875 39.15625 22.28125 C 38.738281 23.636719 38.175781 24.945312 37.472656 26.175781 C 37.144531 26.648438 36.78125 27.097656 36.390625 27.519531 C 35.972656 27.804688 35.570312 28.109375 35.179688 28.429688 L 35.089844 28.296875 C 35.484375 26.847656 35.585938 25.332031 35.394531 23.839844 C 35.320312 23.445312 35.171875 23.0625 34.960938 22.71875 C 34.828125 24.640625 34.328125 26.519531 33.492188 28.253906 C 32.375 30.347656 30.660156 31.082031 28.34375 30.460938 C 24.875 29.472656 21.832031 27.753906 19.210938 25.3125 C 19.378906 26.351562 19.667969 27.371094 20.078125 28.34375 C 20.613281 29.953125 20.757812 31.597656 20.511719 33.273438 C 20.429688 33.628906 20.3125 33.980469 20.164062 34.3125 C 18.996094 36.21875 17.980469 38.214844 17.132812 40.285156 C 16.851562 41.046875 16.621094 41.828125 16.441406 42.621094 C 16.398438 42.707031 16.320312 42.769531 16.226562 42.792969 C 12.621094 41.660156 9.53125 39.730469 6.964844 36.996094 C 7.863281 35.054688 8.832031 33.152344 9.867188 31.285156 C 10.871094 31.753906 11.933594 32.089844 13.023438 32.277344 C 13.886719 32.460938 14.667969 32.285156 15.359375 31.761719 C 14.53125 31.667969 13.714844 31.464844 12.9375 31.15625 C 11.523438 30.605469 10.902344 29.582031 11.078125 28.082031 C 11.390625 27.023438 11.824219 26.007812 12.375 25.054688 C 14.222656 22.367188 16.371094 19.898438 18.777344 17.699219 C 18.839844 17.546875 18.914062 17.402344 18.996094 17.265625 C 18.984375 17.328125 19 17.390625 19.039062 17.4375 C 19.777344 16.785156 20.542969 16.164062 21.332031 15.578125 C 22.480469 15 23.667969 14.496094 24.878906 14.0625 C 25.226562 14.171875 25.574219 14.160156 25.917969 14.019531 C 27.277344 13.996094 28.632812 13.953125 29.984375 13.890625 Z M 29.984375 13.890625 "/>
<path style=" stroke:none;fill-rule:nonzero;fill:rgb(98.431373%,98.431373%,98.431373%);fill-opacity:1;" d="M 35.871094 29.207031 C 35.390625 31.230469 34.710938 33.203125 33.835938 35.089844 C 33.652344 35.433594 33.378906 35.664062 33.015625 35.785156 L 32.925781 35.652344 C 33.300781 34.613281 33.476562 33.511719 33.445312 32.410156 C 33.136719 33.707031 32.65625 34.957031 32.019531 36.128906 C 31.355469 36.402344 30.675781 36.445312 29.984375 36.257812 C 29.769531 35.988281 29.609375 35.679688 29.507812 35.351562 C 29.285156 34.269531 29.15625 33.167969 29.121094 32.0625 C 31.863281 32.246094 34.113281 31.296875 35.871094 29.207031 Z M 35.871094 29.207031 "/>
</g>
</svg>
