<?xml version="1.0" encoding="UTF-8"?>
<svg xmlns="http://www.w3.org/2000/svg" xmlns:xlink="http://www.w3.org/1999/xlink" width="45px" height="45px" viewBox="0 0 45 45" version="1.1">
<g id="surface1">
<path style=" stroke:none;fill-rule:evenodd;fill:rgb(22.745098%,30.19608%,32.941177%);fill-opacity:1;" d="M 25.945312 17.859375 L 29.917969 17.859375 L 29.917969 21.902344 L 31.921875 21.902344 C 32.835938 21.902344 33.785156 21.726562 34.664062 21.445312 C 35.085938 21.304688 35.578125 21.09375 36 20.847656 C 35.4375 20.109375 35.15625 19.195312 35.085938 18.28125 C 34.980469 17.050781 35.226562 15.433594 36.070312 14.484375 L 36.492188 13.992188 L 36.984375 14.378906 C 38.25 15.398438 39.269531 16.769531 39.480469 18.386719 C 40.992188 17.929688 42.75 18.035156 44.085938 18.808594 L 44.613281 19.125 L 44.332031 19.6875 C 43.207031 21.867188 40.851562 22.570312 38.566406 22.429688 C 35.121094 30.972656 27.667969 35.015625 18.597656 35.015625 C 13.921875 35.015625 9.632812 33.257812 7.171875 29.109375 L 7.136719 29.039062 L 6.785156 28.300781 C 5.941406 26.472656 5.695312 24.46875 5.871094 22.464844 L 5.941406 21.867188 L 9.316406 21.867188 L 9.316406 17.859375 L 13.289062 17.859375 L 13.289062 13.921875 L 21.199219 13.921875 L 21.199219 9.949219 L 25.945312 9.949219 Z M 25.945312 17.859375 "/>
<path style=" stroke:none;fill-rule:nonzero;fill:rgb(0%,66.666669%,85.490197%);fill-opacity:1;" d="M 38.8125 19.371094 C 39.09375 17.296875 37.546875 15.679688 36.5625 14.90625 C 35.472656 16.171875 35.296875 19.546875 37.019531 20.953125 C 36.035156 21.796875 34.03125 22.605469 31.921875 22.605469 L 6.539062 22.605469 C 6.328125 24.785156 6.714844 26.789062 7.59375 28.511719 L 7.875 29.039062 C 8.050781 29.355469 8.261719 29.636719 8.472656 29.953125 C 9.527344 30.023438 10.476562 30.058594 11.355469 30.023438 C 13.078125 29.988281 14.484375 29.777344 15.574219 29.425781 C 15.75 29.355469 15.890625 29.460938 15.960938 29.601562 C 16.03125 29.777344 15.925781 29.917969 15.785156 29.988281 C 15.644531 30.023438 15.503906 30.09375 15.328125 30.128906 C 14.484375 30.375 13.570312 30.515625 12.410156 30.585938 L 12.199219 30.585938 C 11.742188 30.621094 11.25 30.621094 10.722656 30.621094 C 10.160156 30.621094 9.632812 30.621094 9 30.585938 C 11.109375 32.976562 14.414062 34.382812 18.5625 34.382812 C 27.351562 34.382812 34.804688 30.480469 38.074219 21.761719 C 40.429688 22.007812 42.679688 21.410156 43.699219 19.40625 C 42.117188 18.457031 40.007812 18.773438 38.8125 19.371094 Z M 38.8125 19.371094 "/>
<path style=" stroke:none;fill-rule:nonzero;fill:rgb(15.686275%,72.156864%,92.156863%);fill-opacity:1;" d="M 38.8125 19.371094 C 39.09375 17.296875 37.546875 15.679688 36.5625 14.90625 C 35.472656 16.171875 35.296875 19.546875 37.019531 20.953125 C 36.035156 21.796875 34.03125 22.605469 31.921875 22.605469 L 8.015625 22.605469 C 7.910156 25.945312 9.140625 28.476562 11.355469 29.988281 C 13.078125 29.953125 14.484375 29.742188 15.574219 29.390625 C 15.75 29.320312 15.890625 29.425781 15.960938 29.566406 C 16.03125 29.742188 15.925781 29.882812 15.785156 29.953125 C 15.644531 29.988281 15.503906 30.058594 15.328125 30.09375 C 14.484375 30.339844 13.5 30.515625 12.339844 30.585938 L 12.304688 30.550781 C 15.292969 32.097656 19.617188 32.0625 24.609375 30.164062 C 30.164062 28.019531 35.367188 23.941406 38.988281 19.300781 C 38.917969 19.335938 38.847656 19.335938 38.8125 19.371094 Z M 38.8125 19.371094 "/>
<path style=" stroke:none;fill-rule:nonzero;fill:rgb(0.784314%,54.509807%,72.156864%);fill-opacity:1;" d="M 6.574219 25.242188 C 6.714844 26.402344 7.066406 27.492188 7.59375 28.511719 L 7.875 29.039062 C 8.050781 29.355469 8.261719 29.636719 8.472656 29.953125 C 9.527344 30.023438 10.476562 30.058594 11.355469 30.023438 C 13.078125 29.988281 14.484375 29.777344 15.574219 29.425781 C 15.75 29.355469 15.890625 29.460938 15.960938 29.601562 C 16.03125 29.777344 15.925781 29.917969 15.785156 29.988281 C 15.644531 30.023438 15.503906 30.09375 15.328125 30.128906 C 14.484375 30.375 13.5 30.550781 12.339844 30.621094 L 12.199219 30.621094 C 11.742188 30.65625 11.25 30.65625 10.757812 30.65625 C 10.195312 30.65625 9.632812 30.65625 9.035156 30.621094 C 11.144531 33.011719 14.484375 34.417969 18.632812 34.417969 C 26.15625 34.417969 32.695312 31.570312 36.492188 25.277344 L 6.574219 25.277344 Z M 6.574219 25.242188 "/>
<path style=" stroke:none;fill-rule:nonzero;fill:rgb(0.392157%,60.784316%,77.64706%);fill-opacity:1;" d="M 8.261719 25.242188 C 8.71875 27.28125 9.773438 28.898438 11.355469 29.988281 C 13.078125 29.953125 14.484375 29.742188 15.574219 29.390625 C 15.75 29.320312 15.890625 29.425781 15.960938 29.566406 C 16.03125 29.742188 15.925781 29.882812 15.785156 29.953125 C 15.644531 29.988281 15.503906 30.058594 15.328125 30.09375 C 14.484375 30.339844 13.5 30.515625 12.304688 30.585938 C 15.292969 32.132812 19.617188 32.097656 24.574219 30.199219 C 27.5625 29.039062 30.480469 27.316406 33.082031 25.242188 Z M 8.261719 25.242188 "/>
<path style=" stroke:none;fill-rule:evenodd;fill:rgb(0%,67.450982%,82.745099%);fill-opacity:1;" d="M 9.984375 18.527344 L 13.429688 18.527344 L 13.429688 21.972656 L 9.984375 21.972656 Z M 10.265625 18.808594 L 10.546875 18.808594 L 10.546875 21.65625 L 10.265625 21.65625 Z M 10.757812 18.808594 L 11.039062 18.808594 L 11.039062 21.65625 L 10.757812 21.65625 Z M 11.285156 18.808594 L 11.566406 18.808594 L 11.566406 21.65625 L 11.285156 21.65625 Z M 11.8125 18.808594 L 12.09375 18.808594 L 12.09375 21.65625 L 11.8125 21.65625 Z M 12.339844 18.808594 L 12.621094 18.808594 L 12.621094 21.65625 L 12.339844 21.65625 Z M 12.867188 18.808594 L 13.148438 18.808594 L 13.148438 21.65625 L 12.867188 21.65625 Z M 13.921875 14.589844 L 17.367188 14.589844 L 17.367188 18.035156 L 13.921875 18.035156 Z M 14.238281 14.871094 L 14.519531 14.871094 L 14.519531 17.71875 L 14.238281 17.71875 Z M 14.730469 14.871094 L 15.011719 14.871094 L 15.011719 17.71875 L 14.730469 17.71875 Z M 15.257812 14.871094 L 15.539062 14.871094 L 15.539062 17.71875 L 15.257812 17.71875 Z M 15.785156 14.871094 L 16.066406 14.871094 L 16.066406 17.71875 L 15.785156 17.71875 Z M 16.277344 14.871094 L 16.558594 14.871094 L 16.558594 17.71875 L 16.277344 17.71875 Z M 16.804688 14.871094 L 17.085938 14.871094 L 17.085938 17.71875 L 16.804688 17.71875 Z M 16.804688 14.871094 "/>
<path style=" stroke:none;fill-rule:evenodd;fill:rgb(13.725491%,76.078433%,93.333334%);fill-opacity:1;" d="M 13.921875 18.527344 L 17.367188 18.527344 L 17.367188 21.972656 L 13.921875 21.972656 Z M 14.238281 18.808594 L 14.519531 18.808594 L 14.519531 21.65625 L 14.238281 21.65625 Z M 14.730469 18.808594 L 15.011719 18.808594 L 15.011719 21.65625 L 14.730469 21.65625 Z M 15.257812 18.808594 L 15.539062 18.808594 L 15.539062 21.65625 L 15.257812 21.65625 Z M 15.785156 18.808594 L 16.066406 18.808594 L 16.066406 21.65625 L 15.785156 21.65625 Z M 16.277344 18.808594 L 16.558594 18.808594 L 16.558594 21.65625 L 16.277344 21.65625 Z M 16.804688 18.808594 L 17.085938 18.808594 L 17.085938 21.65625 L 16.804688 21.65625 Z M 16.804688 18.808594 "/>
<path style=" stroke:none;fill-rule:evenodd;fill:rgb(0%,67.450982%,82.745099%);fill-opacity:1;" d="M 17.894531 18.527344 L 21.339844 18.527344 L 21.339844 21.972656 L 17.894531 21.972656 Z M 18.175781 18.808594 L 18.457031 18.808594 L 18.457031 21.65625 L 18.175781 21.65625 Z M 18.703125 18.808594 L 18.984375 18.808594 L 18.984375 21.65625 L 18.703125 21.65625 Z M 19.230469 18.808594 L 19.511719 18.808594 L 19.511719 21.65625 L 19.230469 21.65625 Z M 19.722656 18.808594 L 20.003906 18.808594 L 20.003906 21.65625 L 19.722656 21.65625 Z M 20.25 18.808594 L 20.53125 18.808594 L 20.53125 21.65625 L 20.25 21.65625 Z M 20.777344 18.808594 L 21.058594 18.808594 L 21.058594 21.65625 L 20.777344 21.65625 Z M 20.777344 18.808594 "/>
<path style=" stroke:none;fill-rule:evenodd;fill:rgb(13.725491%,76.078433%,93.333334%);fill-opacity:1;" d="M 17.894531 14.589844 L 21.339844 14.589844 L 21.339844 18.035156 L 17.894531 18.035156 Z M 18.175781 14.871094 L 18.457031 14.871094 L 18.457031 17.71875 L 18.175781 17.71875 Z M 18.703125 14.871094 L 18.984375 14.871094 L 18.984375 17.71875 L 18.703125 17.71875 Z M 19.230469 14.871094 L 19.511719 14.871094 L 19.511719 17.71875 L 19.230469 17.71875 Z M 19.722656 14.871094 L 20.003906 14.871094 L 20.003906 17.71875 L 19.722656 17.71875 Z M 20.25 14.871094 L 20.53125 14.871094 L 20.53125 17.71875 L 20.25 17.71875 Z M 20.777344 14.871094 L 21.058594 14.871094 L 21.058594 17.71875 L 20.777344 17.71875 Z M 21.867188 18.527344 L 25.3125 18.527344 L 25.3125 21.972656 L 21.867188 21.972656 Z M 22.148438 18.808594 L 22.429688 18.808594 L 22.429688 21.65625 L 22.148438 21.65625 Z M 22.675781 18.808594 L 22.957031 18.808594 L 22.957031 21.65625 L 22.675781 21.65625 Z M 23.167969 18.808594 L 23.449219 18.808594 L 23.449219 21.65625 L 23.167969 21.65625 Z M 23.695312 18.808594 L 23.976562 18.808594 L 23.976562 21.65625 L 23.695312 21.65625 Z M 24.222656 18.808594 L 24.503906 18.808594 L 24.503906 21.65625 L 24.222656 21.65625 Z M 24.75 18.808594 L 25.03125 18.808594 L 25.03125 21.65625 L 24.75 21.65625 Z M 24.75 18.808594 "/>
<path style=" stroke:none;fill-rule:evenodd;fill:rgb(0%,67.450982%,82.745099%);fill-opacity:1;" d="M 21.867188 14.589844 L 25.3125 14.589844 L 25.3125 18.035156 L 21.867188 18.035156 Z M 22.148438 14.871094 L 22.429688 14.871094 L 22.429688 17.71875 L 22.148438 17.71875 Z M 22.675781 14.871094 L 22.957031 14.871094 L 22.957031 17.71875 L 22.675781 17.71875 Z M 23.167969 14.871094 L 23.449219 14.871094 L 23.449219 17.71875 L 23.167969 17.71875 Z M 23.695312 14.871094 L 23.976562 14.871094 L 23.976562 17.71875 L 23.695312 17.71875 Z M 24.222656 14.871094 L 24.503906 14.871094 L 24.503906 17.71875 L 24.222656 17.71875 Z M 24.75 14.871094 L 25.03125 14.871094 L 25.03125 17.71875 L 24.75 17.71875 Z M 24.75 14.871094 "/>
<path style=" stroke:none;fill-rule:evenodd;fill:rgb(13.725491%,76.078433%,93.333334%);fill-opacity:1;" d="M 21.867188 10.617188 L 25.3125 10.617188 L 25.3125 14.0625 L 21.867188 14.0625 Z M 22.148438 10.898438 L 22.429688 10.898438 L 22.429688 13.746094 L 22.148438 13.746094 Z M 22.675781 10.898438 L 22.957031 10.898438 L 22.957031 13.746094 L 22.675781 13.746094 Z M 23.167969 10.898438 L 23.449219 10.898438 L 23.449219 13.746094 L 23.167969 13.746094 Z M 23.695312 10.898438 L 23.976562 10.898438 L 23.976562 13.746094 L 23.695312 13.746094 Z M 24.222656 10.898438 L 24.503906 10.898438 L 24.503906 13.746094 L 24.222656 13.746094 Z M 24.75 10.898438 L 25.03125 10.898438 L 25.03125 13.746094 L 24.75 13.746094 Z M 24.75 10.898438 "/>
<path style=" stroke:none;fill-rule:evenodd;fill:rgb(0%,67.450982%,82.745099%);fill-opacity:1;" d="M 25.839844 18.527344 L 29.285156 18.527344 L 29.285156 21.972656 L 25.839844 21.972656 Z M 26.121094 18.808594 L 26.402344 18.808594 L 26.402344 21.65625 L 26.121094 21.65625 Z M 26.613281 18.808594 L 26.894531 18.808594 L 26.894531 21.65625 L 26.613281 21.65625 Z M 27.140625 18.808594 L 27.421875 18.808594 L 27.421875 21.65625 L 27.140625 21.65625 Z M 27.667969 18.808594 L 27.949219 18.808594 L 27.949219 21.65625 L 27.667969 21.65625 Z M 28.195312 18.808594 L 28.476562 18.808594 L 28.476562 21.65625 L 28.195312 21.65625 Z M 28.722656 18.808594 L 29.003906 18.808594 L 29.003906 21.65625 L 28.722656 21.65625 Z M 28.722656 18.808594 "/>
<path style=" stroke:none;fill-rule:evenodd;fill:rgb(83.137256%,93.333334%,94.509804%);fill-opacity:1;" d="M 17.15625 27.527344 C 17.683594 27.527344 18.105469 27.949219 18.105469 28.476562 C 18.105469 29.003906 17.683594 29.425781 17.15625 29.425781 C 16.628906 29.425781 16.207031 29.003906 16.207031 28.476562 C 16.207031 27.949219 16.628906 27.527344 17.15625 27.527344 "/>
<path style=" stroke:none;fill-rule:evenodd;fill:rgb(22.745098%,30.19608%,32.941177%);fill-opacity:1;" d="M 17.15625 27.808594 C 17.226562 27.808594 17.332031 27.808594 17.402344 27.84375 C 17.332031 27.878906 17.261719 27.984375 17.261719 28.089844 C 17.261719 28.230469 17.402344 28.371094 17.542969 28.371094 C 17.648438 28.371094 17.753906 28.300781 17.789062 28.230469 C 17.824219 28.300781 17.824219 28.40625 17.824219 28.476562 C 17.824219 28.863281 17.507812 29.144531 17.15625 29.144531 C 16.769531 29.144531 16.488281 28.828125 16.488281 28.476562 C 16.488281 28.125 16.769531 27.808594 17.15625 27.808594 M 0.386719 25.59375 L 44.472656 25.59375 C 43.523438 25.347656 41.449219 25.03125 41.765625 23.765625 C 40.007812 25.769531 35.824219 25.171875 34.734375 24.1875 C 33.539062 25.910156 26.648438 25.242188 26.191406 23.90625 C 24.714844 25.664062 20.109375 25.664062 18.632812 23.90625 C 18.140625 25.242188 11.25 25.910156 10.089844 24.1875 C 9.035156 25.171875 4.816406 25.769531 3.058594 23.765625 C 3.445312 24.996094 1.335938 25.347656 0.386719 25.59375 "/>
<path style=" stroke:none;fill-rule:nonzero;fill:rgb(74.901962%,85.882354%,87.843138%);fill-opacity:1;" d="M 19.6875 34.382812 C 17.332031 33.257812 16.066406 31.746094 15.328125 30.09375 C 14.449219 30.339844 13.394531 30.515625 12.199219 30.585938 C 11.742188 30.621094 11.25 30.621094 10.757812 30.621094 C 10.160156 30.621094 9.5625 30.621094 8.929688 30.585938 C 11.039062 32.695312 13.710938 34.347656 18.597656 34.382812 Z M 19.6875 34.382812 "/>
<path style=" stroke:none;fill-rule:nonzero;fill:rgb(83.137256%,93.333334%,94.509804%);fill-opacity:1;" d="M 16.207031 31.605469 C 15.890625 31.148438 15.574219 30.621094 15.328125 30.09375 C 14.449219 30.339844 13.394531 30.515625 12.199219 30.585938 C 13.007812 31.007812 14.203125 31.429688 16.207031 31.605469 Z M 16.207031 31.605469 "/>
</g>
</svg>
