<?xml version="1.0" encoding="UTF-8"?>
<svg xmlns="http://www.w3.org/2000/svg" xmlns:xlink="http://www.w3.org/1999/xlink" width="45px" height="45px" viewBox="0 0 45 45" version="1.1">
<defs>
<linearGradient id="linear0" gradientUnits="userSpaceOnUse" x1="0.5" y1="10.894" x2="0.5" y2="-1.595" gradientTransform="matrix(26.905518,0,0,2.384033,11.311875,19.023047)">
<stop offset="0.303" style="stop-color:rgb(27.843137%,21.568627%,53.333333%);stop-opacity:1;"/>
<stop offset="0.872" style="stop-color:rgb(17.254902%,13.333333%,33.333333%);stop-opacity:1;"/>
</linearGradient>
<linearGradient id="linear1" gradientUnits="userSpaceOnUse" x1="0.5" y1="8.965" x2="0.5" y2="-3.524" gradientTransform="matrix(26.905518,0,0,2.384033,11.311875,23.621837)">
<stop offset="0.303" style="stop-color:rgb(27.843137%,21.568627%,53.333333%);stop-opacity:1;"/>
<stop offset="0.872" style="stop-color:rgb(17.254902%,13.333333%,33.333333%);stop-opacity:1;"/>
</linearGradient>
<linearGradient id="linear2" gradientUnits="userSpaceOnUse" x1="0.5" y1="2.152" x2="0.5" y2="-1.667" gradientTransform="matrix(24.474792,0,0,7.797547,12.527226,28.219921)">
<stop offset="0.303" style="stop-color:rgb(27.843137%,21.568627%,53.333333%);stop-opacity:1;"/>
<stop offset="0.863" style="stop-color:rgb(17.254902%,13.333333%,33.333333%);stop-opacity:1;"/>
</linearGradient>
</defs>
<g id="surface1">
<path style=" stroke:none;fill-rule:nonzero;fill:rgb(17.254902%,13.333334%,33.333334%);fill-opacity:1;" d="M 12.527344 28.21875 L 5.757812 28.21875 C 6.652344 31.296875 8.316406 34.050781 10.753906 36.488281 C 14.636719 40.371094 19.304688 42.308594 24.761719 42.308594 C 25.855469 42.308594 26.914062 42.230469 27.941406 42.074219 C 32.050781 41.453125 35.652344 39.59375 38.738281 36.488281 C 41.1875 34.050781 42.863281 31.296875 43.769531 28.21875 Z M 8.792969 19.023438 L 5.257812 19.023438 C 5.125 19.8125 5.039062 20.609375 5 21.410156 L 44.53125 21.410156 C 44.488281 20.609375 44.402344 19.8125 44.269531 19.023438 M 5 23.621094 C 5.039062 24.421875 5.125 25.21875 5.257812 26.007812 L 44.273438 26.007812 C 44.402344 25.214844 44.492188 24.421875 44.53125 23.621094 M 43.769531 16.808594 C 42.867188 13.726562 41.191406 10.957031 38.738281 8.503906 C 35.660156 5.425781 32.070312 3.582031 27.972656 2.960938 C 26.910156 2.800781 25.839844 2.71875 24.765625 2.71875 C 19.304688 2.71875 14.636719 4.648438 10.753906 8.503906 C 8.316406 10.957031 6.652344 13.726562 5.753906 16.808594 "/>
<path style=" stroke:none;fill-rule:nonzero;fill:rgb(96.862745%,58.039218%,11.764706%);fill-opacity:1;" d="M 3.824219 22.515625 C 3.824219 12.074219 11.667969 3.394531 21.871094 1.871094 C 21.617188 1.859375 21.363281 1.851562 21.105469 1.851562 C 9.65625 1.851562 0.375 11.101562 0.375 22.515625 C 0.375 33.929688 9.65625 43.179688 21.105469 43.179688 C 21.363281 43.179688 21.617188 43.171875 21.871094 43.160156 C 11.667969 41.636719 3.824219 32.960938 3.824219 22.515625 Z M 3.824219 22.515625 "/>
<path style=" stroke:none;fill-rule:nonzero;fill:url(#linear0);" d="M 38.21875 21.40625 C 38.152344 20.601562 38.015625 19.804688 37.808594 19.023438 L 11.722656 19.023438 C 11.515625 19.804688 11.375 20.601562 11.3125 21.40625 Z M 38.21875 21.40625 "/>
<path style=" stroke:none;fill-rule:nonzero;fill:url(#linear1);" d="M 38.21875 23.621094 L 11.3125 23.621094 C 11.375 24.425781 11.515625 25.226562 11.722656 26.007812 L 37.808594 26.007812 C 38.015625 25.226562 38.152344 24.425781 38.21875 23.621094 Z M 38.21875 23.621094 "/>
<path style=" stroke:none;fill-rule:nonzero;fill:url(#linear2);" d="M 24.765625 36.015625 C 30.183594 36.015625 34.851562 32.824219 37.003906 28.21875 L 12.527344 28.21875 C 14.679688 32.824219 19.347656 36.019531 24.765625 36.019531 Z M 24.765625 36.015625 "/>
<path style=" stroke:none;fill-rule:nonzero;fill:rgb(100%,100%,100%);fill-opacity:1;" d="M 9.316406 23.621094 L 44.503906 23.621094 C 44.523438 23.265625 44.53125 22.914062 44.53125 22.558594 C 44.53125 22.171875 44.519531 21.789062 44.496094 21.40625 L 5 21.40625 C 4.976562 21.789062 4.964844 22.175781 4.964844 22.558594 C 4.964844 22.914062 4.972656 23.269531 4.992188 23.621094 Z M 12.449219 16.808594 L 5.753906 16.808594 C 5.535156 17.53125 5.394531 18.269531 5.257812 19.023438 L 44.144531 19.023438 C 44.011719 18.277344 43.832031 17.535156 43.613281 16.808594 M 41.601562 26.007812 L 5.257812 26.007812 C 5.390625 26.757812 5.539062 27.5 5.757812 28.21875 L 43.742188 28.21875 C 43.960938 27.492188 44.136719 26.753906 44.265625 26.007812 Z M 41.601562 26.007812 "/>
</g>
</svg>
