<?xml version="1.0" encoding="UTF-8"?>
<svg xmlns="http://www.w3.org/2000/svg" xmlns:xlink="http://www.w3.org/1999/xlink" width="45px" height="45px" viewBox="0 0 45 45" version="1.1">
<g id="surface1">
<path style=" stroke:none;fill-rule:nonzero;fill:rgb(3.921569%,3.921569%,3.921569%);fill-opacity:1;" d="M 22.992188 31.25 L 25.140625 31.25 L 38.21875 13.765625 L 36.039062 13.765625 Z M 41.324219 33.949219 L 41.324219 33.957031 L 33.199219 23.257812 L 32.15625 24.648438 L 41.292969 37.175781 L 1.773438 37.175781 L 1.773438 7.824219 L 19.59375 7.824219 L 29.015625 20.386719 L 30.09375 18.9375 L 21.890625 7.824219 L 21.898438 7.824219 L 20.550781 6.050781 L 0 6.050781 L 0 38.949219 L 45 38.949219 Z M 20.46875 16.320312 C 19.84375 15.402344 19.015625 14.644531 18.046875 14.105469 C 17.050781 13.542969 15.855469 13.261719 14.453125 13.261719 C 13.054688 13.261719 11.886719 13.523438 10.878906 14.054688 C 9.910156 14.554688 9.070312 15.273438 8.425781 16.15625 C 7.78125 17.050781 7.304688 18.054688 7.019531 19.121094 C 6.414062 21.390625 6.414062 23.777344 7.019531 26.050781 C 7.296875 27.113281 7.773438 28.113281 8.425781 29 C 9.066406 29.855469 9.910156 30.542969 10.878906 30.996094 C 11.882812 31.484375 13.074219 31.726562 14.453125 31.726562 C 16.667969 31.726562 18.378906 31.183594 19.589844 30.097656 C 20.796875 29.015625 21.628906 27.480469 22.078125 25.492188 L 19.945312 25.492188 C 19.605469 26.847656 18.996094 27.929688 18.113281 28.742188 C 17.234375 29.558594 16.011719 29.964844 14.453125 29.960938 C 13.4375 29.960938 12.566406 29.75 11.84375 29.320312 C 11.136719 28.910156 10.523438 28.355469 10.046875 27.691406 C 9.566406 27.023438 9.21875 26.273438 9.015625 25.476562 C 8.828125 24.78125 8.722656 24.070312 8.695312 23.351562 C 8.691406 23.171875 8.679688 22.992188 8.667969 22.816406 C 8.628906 22.296875 8.640625 21.777344 8.695312 21.261719 C 8.785156 20.476562 8.972656 19.703125 9.25 18.96875 C 9.515625 18.242188 9.898438 17.566406 10.386719 16.96875 C 10.863281 16.390625 11.449219 15.917969 12.117188 15.578125 C 12.792969 15.226562 13.570312 15.050781 14.453125 15.050781 C 15.332031 15.050781 16.082031 15.226562 16.757812 15.578125 C 17.433594 15.929688 18.011719 16.390625 18.488281 16.96875 C 18.960938 17.546875 19.328125 18.207031 19.589844 18.949219 C 19.847656 19.695312 19.988281 20.472656 20.011719 21.285156 L 10.546875 21.285156 L 10.554688 23.082031 L 22.144531 23.082031 C 22.195312 21.867188 22.078125 20.65625 21.808594 19.472656 C 21.5625 18.347656 21.109375 17.28125 20.46875 16.324219 Z M 20.46875 16.320312 "/>
</g>
</svg>
