<?xml version="1.0" encoding="UTF-8"?>
<svg xmlns="http://www.w3.org/2000/svg" xmlns:xlink="http://www.w3.org/1999/xlink" width="45px" height="45px" viewBox="0 0 45 45" version="1.1">
<g id="surface1">
<path style=" stroke:none;fill-rule:nonzero;fill:rgb(3.921569%,81.176472%,51.372552%);fill-opacity:1;" d="M 15.996094 45.351562 C 20.179688 45.351562 23.554688 41.976562 23.554688 37.792969 L 23.554688 30.234375 L 15.996094 30.234375 C 11.8125 30.234375 8.4375 33.609375 8.4375 37.792969 C 8.4375 41.976562 11.8125 45.351562 15.996094 45.351562 Z M 15.996094 45.351562 "/>
<path style=" stroke:none;fill-rule:nonzero;fill:rgb(63.529414%,34.901962%,100%);fill-opacity:1;" d="M 8.4375 22.675781 C 8.4375 18.492188 11.8125 15.117188 15.996094 15.117188 L 23.554688 15.117188 L 23.554688 30.234375 L 15.996094 30.234375 C 11.8125 30.234375 8.4375 26.859375 8.4375 22.675781 Z M 8.4375 22.675781 "/>
<path style=" stroke:none;fill-rule:nonzero;fill:rgb(94.901961%,30.588236%,11.764706%);fill-opacity:1;" d="M 8.4375 7.558594 C 8.4375 3.375 11.8125 0 15.996094 0 L 23.554688 0 L 23.554688 15.117188 L 15.996094 15.117188 C 11.8125 15.117188 8.4375 11.742188 8.4375 7.558594 Z M 8.4375 7.558594 "/>
<path style=" stroke:none;fill-rule:nonzero;fill:rgb(100%,44.705883%,38.431373%);fill-opacity:1;" d="M 23.554688 0 L 31.113281 0 C 35.296875 0 38.671875 3.375 38.671875 7.558594 C 38.671875 11.742188 35.296875 15.117188 31.113281 15.117188 L 23.554688 15.117188 Z M 23.554688 0 "/>
<path style=" stroke:none;fill-rule:nonzero;fill:rgb(10.196079%,73.725492%,99.607843%);fill-opacity:1;" d="M 38.671875 22.675781 C 38.671875 26.859375 35.296875 30.234375 31.113281 30.234375 C 26.929688 30.234375 23.554688 26.859375 23.554688 22.675781 C 23.554688 18.492188 26.929688 15.117188 31.113281 15.117188 C 35.296875 15.117188 38.671875 18.492188 38.671875 22.675781 Z M 38.671875 22.675781 "/>
</g>
</svg>
