<?xml version="1.0" encoding="UTF-8"?>
<svg xmlns="http://www.w3.org/2000/svg" xmlns:xlink="http://www.w3.org/1999/xlink" width="45px" height="45px" viewBox="0 0 45 45" version="1.1">
<g id="surface1">
<path style=" stroke:none;fill-rule:nonzero;fill:rgb(9.411765%,9.019608%,9.019608%);fill-opacity:1;" d="M 22.5 0.558594 C 10.070312 0.558594 0 10.632812 0 23.058594 C 0 33 6.445312 41.433594 15.382812 44.402344 C 16.507812 44.617188 16.921875 43.921875 16.921875 43.320312 C 16.921875 42.789062 16.902344 41.371094 16.894531 39.496094 C 10.636719 40.855469 9.316406 36.476562 9.316406 36.476562 C 8.292969 33.882812 6.8125 33.1875 6.8125 33.1875 C 4.773438 31.792969 6.96875 31.820312 6.96875 31.820312 C 9.230469 31.976562 10.414062 34.136719 10.414062 34.136719 C 12.421875 37.578125 15.683594 36.585938 16.96875 36.007812 C 17.171875 34.554688 17.75 33.5625 18.394531 33 C 13.398438 32.4375 8.144531 30.503906 8.144531 21.882812 C 8.144531 19.425781 9.015625 17.417969 10.460938 15.84375 C 10.207031 15.277344 9.449219 12.988281 10.65625 9.890625 C 10.65625 9.890625 12.542969 9.285156 16.84375 12.195312 C 18.644531 11.695312 20.558594 11.445312 22.46875 11.4375 C 24.382812 11.445312 26.296875 11.695312 28.09375 12.195312 C 32.371094 9.285156 34.253906 9.890625 34.253906 9.890625 C 35.464844 12.988281 34.703125 15.277344 34.480469 15.84375 C 35.914062 17.417969 36.785156 19.425781 36.785156 21.882812 C 36.785156 30.523438 31.527344 32.429688 26.519531 32.980469 C 27.308594 33.65625 28.039062 35.035156 28.039062 37.144531 C 28.039062 40.15625 28.011719 42.574219 28.011719 43.304688 C 28.011719 43.894531 28.40625 44.597656 29.558594 44.375 C 38.558594 41.421875 45 32.984375 45 23.058594 C 45 10.632812 34.925781 0.558594 22.5 0.558594 "/>
</g>
</svg>
