<?xml version="1.0" encoding="UTF-8"?>
<svg xmlns="http://www.w3.org/2000/svg" xmlns:xlink="http://www.w3.org/1999/xlink" width="45px" height="45px" viewBox="0 0 45 45" version="1.1">
<g id="surface1">
<path style=" stroke:none;fill-rule:nonzero;fill:rgb(30.588236%,47.058824%,58.823532%);fill-opacity:1;" d="M 16.34375 34.789062 C 16.34375 34.789062 14.613281 35.84375 17.546875 36.144531 C 21.074219 36.59375 22.957031 36.519531 26.863281 35.769531 C 27.648438 36.25 28.476562 36.652344 29.339844 36.96875 C 20.550781 40.726562 9.429688 36.746094 16.34375 34.789062 Z M 15.21875 29.90625 C 15.21875 29.90625 13.339844 31.335938 16.269531 31.636719 C 20.101562 32.011719 23.109375 32.085938 28.292969 31.035156 C 28.796875 31.546875 29.414062 31.933594 30.097656 32.164062 C 19.5 35.316406 7.628906 32.464844 15.21875 29.90625 Z M 35.957031 38.472656 C 35.957031 38.472656 37.234375 39.523438 34.527344 40.347656 C 29.496094 41.855469 13.414062 42.304688 8.90625 40.347656 C 7.328125 39.675781 10.335938 38.695312 11.296875 38.546875 C 12.273438 38.320312 12.800781 38.320312 12.800781 38.320312 C 11.074219 37.121094 1.304688 40.800781 7.84375 41.851562 C 25.800781 44.78125 40.605469 40.574219 35.945312 38.472656 Z M 17.15625 24.796875 C 17.15625 24.796875 8.964844 26.75 14.226562 27.425781 C 16.480469 27.726562 20.914062 27.652344 25.046875 27.351562 C 28.425781 27.050781 31.808594 26.453125 31.808594 26.453125 C 31.808594 26.453125 30.605469 26.976562 29.78125 27.503906 C 21.441406 29.683594 5.433594 28.707031 10.019531 26.453125 C 13.925781 24.574219 17.15625 24.800781 17.15625 24.800781 Z M 31.808594 32.988281 C 40.222656 28.628906 36.316406 24.421875 33.613281 24.945312 C 32.9375 25.097656 32.636719 25.246094 32.636719 25.246094 C 32.636719 25.246094 32.859375 24.796875 33.386719 24.648438 C 38.722656 22.769531 42.929688 30.28125 31.65625 33.210938 C 31.65625 33.210938 31.730469 33.136719 31.804688 32.988281 Z M 17.984375 44.859375 C 26.101562 45.382812 38.5 44.558594 38.796875 40.722656 C 38.796875 40.722656 38.199219 42.226562 32.113281 43.351562 C 25.199219 44.628906 16.632812 44.476562 11.597656 43.652344 C 11.597656 43.652344 12.652344 44.554688 17.984375 44.855469 Z M 17.984375 44.859375 "/>
<path style=" stroke:none;fill-rule:nonzero;fill:rgb(96.078432%,50.980395%,9.803922%);fill-opacity:1;" d="M 26.714844 0 C 26.714844 0 31.371094 4.734375 22.28125 11.871094 C 14.992188 17.660156 20.628906 20.964844 22.28125 24.722656 C 17.996094 20.890625 14.917969 17.507812 17.019531 14.355469 C 20.101562 9.691406 28.59375 7.453125 26.714844 0 Z M 24.324219 21.566406 C 26.503906 24.046875 23.722656 26.300781 23.722656 26.300781 C 23.722656 26.300781 29.28125 23.445312 26.726562 19.914062 C 24.398438 16.53125 22.59375 14.878906 32.363281 9.242188 C 32.363281 9.242188 16.960938 13.074219 24.324219 21.566406 Z M 24.324219 21.566406 "/>
</g>
</svg>
