<?xml version="1.0" encoding="UTF-8"?>
<svg xmlns="http://www.w3.org/2000/svg" xmlns:xlink="http://www.w3.org/1999/xlink" width="45px" height="45px" viewBox="0 0 45 45" version="1.1">
<g id="surface1">
<path style=" stroke:none;fill-rule:nonzero;fill:rgb(96.862745%,87.450981%,11.764706%);fill-opacity:1;" d="M 0 0 L 45 0 L 45 45 L 0 45 Z M 41.3125 34.265625 C 40.984375 32.214844 39.648438 30.488281 35.683594 28.878906 C 34.304688 28.234375 32.769531 27.785156 32.3125 26.742188 C 32.144531 26.125 32.117188 25.785156 32.226562 25.421875 C 32.507812 24.210938 33.941406 23.847656 35.066406 24.183594 C 35.800781 24.410156 36.472656 24.972656 36.898438 25.871094 C 38.835938 24.605469 38.835938 24.605469 40.1875 23.761719 C 39.683594 22.972656 39.429688 22.636719 39.089844 22.300781 C 37.910156 20.976562 36.335938 20.300781 33.777344 20.359375 L 32.453125 20.527344 C 31.1875 20.835938 29.980469 21.511719 29.25 22.410156 C 27.109375 24.832031 27.726562 29.050781 30.316406 30.796875 C 32.875 32.707031 36.617188 33.128906 37.09375 34.929688 C 37.546875 37.125 35.464844 37.828125 33.410156 37.574219 C 31.886719 37.234375 31.046875 36.472656 30.117188 35.066406 L 26.6875 37.039062 C 27.082031 37.9375 27.53125 38.332031 28.207031 39.117188 C 31.46875 42.410156 39.625 42.242188 41.089844 37.234375 C 41.144531 37.066406 41.539062 35.914062 41.226562 34.140625 Z M 24.46875 20.683594 L 20.253906 20.683594 C 20.253906 24.316406 20.238281 27.929688 20.238281 31.566406 C 20.238281 33.878906 20.355469 36 19.980469 36.652344 C 19.359375 37.941406 17.765625 37.777344 17.042969 37.550781 C 16.300781 37.183594 15.925781 36.675781 15.488281 35.949219 C 15.371094 35.75 15.28125 35.578125 15.25 35.578125 L 11.828125 37.6875 C 12.398438 38.871094 13.234375 39.886719 14.308594 40.535156 C 15.914062 41.488281 18.066406 41.800781 20.324219 41.292969 C 21.792969 40.871094 23.058594 39.996094 23.71875 38.648438 C 24.675781 36.902344 24.472656 34.765625 24.464844 32.375 C 24.484375 28.523438 24.464844 24.667969 24.464844 20.789062 Z M 24.46875 20.683594 "/>
</g>
</svg>
