<?xml version="1.0" encoding="UTF-8"?>
<svg xmlns="http://www.w3.org/2000/svg" xmlns:xlink="http://www.w3.org/1999/xlink" width="45px" height="45px" viewBox="0 0 45 45" version="1.1">
<g id="surface1">
<path style=" stroke:none;fill-rule:nonzero;fill:rgb(95.294118%,46.27451%,14.901961%);fill-opacity:1;" d="M 13.417969 41.625 C 13.417969 43.488281 11.921875 45 10.078125 45 C 8.230469 45 6.730469 43.488281 6.730469 41.625 C 6.730469 39.765625 8.230469 38.253906 10.078125 38.253906 C 11.921875 38.253906 13.417969 39.765625 13.417969 41.625 Z M 38.589844 2.675781 C 38.59375 4.152344 37.402344 5.351562 35.9375 5.351562 C 35.234375 5.355469 34.558594 5.070312 34.058594 4.570312 C 33.5625 4.066406 33.28125 3.386719 33.28125 2.675781 C 33.28125 1.195312 34.472656 0 35.9375 0 C 37.402344 0 38.589844 1.199219 38.589844 2.675781 Z M 9.359375 6.253906 C 9.359375 7.347656 8.480469 8.230469 7.398438 8.230469 C 6.316406 8.230469 5.4375 7.347656 5.4375 6.253906 C 5.4375 5.160156 6.316406 4.273438 7.398438 4.273438 C 8.480469 4.277344 9.359375 5.164062 9.359375 6.253906 Z M 23.113281 9.097656 C 30.183594 9.097656 36.351562 11.6875 39.554688 15.519531 C 38.367188 12.089844 36.144531 9.109375 33.191406 6.992188 C 30.253906 4.886719 26.726562 3.753906 23.109375 3.753906 C 19.496094 3.753906 15.972656 4.886719 13.03125 6.992188 C 10.078125 9.109375 7.855469 12.085938 6.667969 15.519531 C 9.878906 11.695312 16.050781 9.097656 23.113281 9.097656 Z M 23.117188 34.027344 C 16.050781 34.027344 9.878906 31.4375 6.675781 27.605469 C 7.867188 31.039062 10.089844 34.015625 13.039062 36.132812 C 15.980469 38.238281 19.503906 39.371094 23.117188 39.375 C 26.734375 39.375 30.261719 38.238281 33.199219 36.132812 C 36.152344 34.019531 38.375 31.039062 39.5625 27.609375 C 36.351562 31.441406 30.183594 34.03125 23.113281 34.03125 Z M 23.117188 34.027344 "/>
</g>
</svg>
