<?xml version="1.0" encoding="UTF-8"?>
<svg xmlns="http://www.w3.org/2000/svg" xmlns:xlink="http://www.w3.org/1999/xlink" width="45px" height="45px" viewBox="0 0 45 45" version="1.1">
<g id="surface1">
<path style=" stroke:none;fill-rule:nonzero;fill:rgb(100%,17.647059%,12.54902%);fill-opacity:1;" d="M 44.328125 10.179688 L 44.355469 20.023438 C 44.355469 20.277344 44.21875 20.511719 44 20.632812 L 35.894531 25.304688 L 35.894531 34.554688 C 35.894531 34.804688 35.761719 35.039062 35.542969 35.164062 L 18.617188 44.90625 C 18.480469 44.957031 18.464844 44.96875 18.449219 44.972656 C 18.070312 44.96875 18.050781 44.957031 18.035156 44.953125 C 17.996094 44.9375 17.953125 44.925781 17.917969 44.90625 L 1 35.164062 C 0.78125 35.039062 0.644531 34.808594 0.644531 34.554688 L 0.644531 5.578125 C 0.644531 5.515625 0.65625 5.453125 0.671875 5.390625 C 0.675781 5.371094 0.691406 5.355469 0.699219 5.332031 C 0.75 5.199219 0.769531 5.183594 0.785156 5.160156 L 0.84375 5.078125 C 0.867188 5.058594 0.890625 5.042969 0.914062 5.027344 C 0.941406 5.003906 0.964844 4.980469 0.992188 4.964844 L 9.457031 0.09375 C 9.671875 -0.03125 9.941406 -0.03125 10.160156 0.09375 L 18.617188 4.964844 L 18.621094 4.964844 C 18.652344 4.980469 18.671875 5.003906 18.699219 5.023438 L 18.769531 5.074219 C 18.792969 5.101562 18.804688 5.132812 18.832031 5.160156 C 18.84375 5.179688 18.867188 5.199219 18.878906 5.222656 C 18.894531 5.257812 18.910156 5.292969 18.921875 5.332031 C 18.929688 5.351562 18.941406 5.371094 18.945312 5.390625 C 18.964844 5.449219 18.972656 5.511719 18.972656 5.574219 L 18.972656 23.671875 L 26.023438 19.613281 L 26.023438 10.363281 C 26.023438 10.300781 26.03125 10.238281 26.046875 10.179688 C 26.054688 10.160156 26.066406 10.140625 26.070312 10.121094 C 26.128906 9.984375 26.152344 9.972656 26.164062 9.945312 C 26.1875 9.917969 26.203125 9.890625 26.226562 9.867188 C 26.25 9.84375 26.273438 9.828125 26.296875 9.8125 C 26.320312 9.796875 26.34375 9.769531 26.371094 9.753906 L 26.375 9.753906 L 34.835938 4.882812 C 35.054688 4.757812 35.320312 4.757812 35.539062 4.882812 L 44 9.753906 C 44.03125 9.773438 44.050781 9.792969 44.078125 9.8125 C 44.101562 9.832031 44.125 9.84375 44.148438 9.863281 C 44.171875 9.890625 44.1875 9.921875 44.210938 9.945312 C 44.226562 9.96875 44.246094 9.984375 44.253906 10.007812 C 44.277344 10.046875 44.289062 10.082031 44.300781 10.121094 C 44.3125 10.140625 44.324219 10.160156 44.328125 10.179688 Z M 42.941406 19.617188 L 42.941406 11.585938 L 39.984375 13.289062 L 35.890625 15.644531 L 35.890625 23.671875 Z M 34.484375 34.148438 L 34.484375 26.109375 L 30.460938 28.40625 L 18.972656 34.964844 L 18.972656 43.074219 Z M 2.050781 6.796875 L 2.050781 34.148438 L 17.5625 43.074219 L 17.5625 34.964844 L 9.457031 30.378906 L 9.453125 30.375 L 9.449219 30.375 C 9.421875 30.355469 9.402344 30.335938 9.375 30.316406 C 9.355469 30.296875 9.328125 30.28125 9.308594 30.265625 L 9.308594 30.261719 C 9.28125 30.238281 9.269531 30.214844 9.25 30.1875 C 9.230469 30.167969 9.210938 30.144531 9.195312 30.121094 L 9.191406 30.121094 C 9.179688 30.09375 9.167969 30.0625 9.15625 30.03125 C 9.144531 30 9.128906 29.980469 9.121094 29.953125 C 9.101562 29.816406 9.09375 29.792969 9.09375 29.765625 L 9.09375 10.855469 L 5.007812 8.496094 Z M 9.804688 1.519531 L 2.757812 5.578125 L 9.804688 9.632812 L 16.851562 5.578125 Z M 13.472656 26.839844 L 17.566406 24.484375 L 17.566406 6.796875 L 14.601562 8.5 L 10.511719 10.855469 L 10.511719 28.546875 Z M 35.1875 6.308594 L 28.136719 10.363281 L 35.1875 14.421875 L 42.234375 10.363281 Z M 34.484375 15.644531 L 30.394531 13.289062 L 27.429688 11.585938 L 27.429688 19.617188 L 31.523438 21.972656 L 34.484375 23.675781 Z M 18.265625 33.746094 L 28.601562 27.84375 L 33.769531 24.894531 L 26.726562 20.839844 L 18.621094 25.503906 L 11.230469 29.761719 Z M 18.265625 33.746094 "/>
</g>
</svg>
