<?xml version="1.0" encoding="UTF-8"?>
<svg xmlns="http://www.w3.org/2000/svg" xmlns:xlink="http://www.w3.org/1999/xlink" width="45px" height="45px" viewBox="0 0 45 45" version="1.1">
<g id="surface1">
<path style=" stroke:none;fill-rule:nonzero;fill:rgb(27.843139%,63.529414%,28.235295%);fill-opacity:1;" d="M 32.238281 17.914062 C 29.867188 7.453125 24.265625 4.015625 23.664062 2.699219 C 23.136719 1.960938 22.667969 0.910156 22.285156 0 C 22.21875 0.929688 22.179688 1.285156 21.304688 2.21875 C 19.949219 3.28125 12.984375 9.125 12.417969 21.007812 C 11.886719 32.09375 20.421875 38.699219 21.582031 39.539062 L 21.710938 39.632812 C 21.953125 41.417969 22.160156 43.207031 22.332031 45 L 23.234375 45 C 23.445312 43.066406 23.765625 41.144531 24.1875 39.242188 C 24.972656 38.6875 25.320312 38.375 25.78125 37.945312 C 30.199219 33.859375 32.679688 28.089844 32.605469 22.074219 C 32.625 20.546875 32.414062 18.957031 32.238281 17.914062 Z M 22.230469 33.28125 C 22.230469 33.28125 22.230469 17.734375 22.746094 17.738281 C 23.148438 17.738281 23.667969 37.789062 23.667969 37.789062 C 22.953125 37.707031 22.230469 34.492188 22.230469 33.28125 Z M 22.230469 33.28125 "/>
</g>
</svg>
