<?xml version="1.0" encoding="UTF-8"?>
<svg xmlns="http://www.w3.org/2000/svg" xmlns:xlink="http://www.w3.org/1999/xlink" width="45px" height="45px" viewBox="0 0 45 45" version="1.1">
<g id="surface1">
<path style=" stroke:none;fill-rule:nonzero;fill:rgb(26.666668%,47.450981%,63.137257%);fill-opacity:1;" d="M 30.757812 10.3125 C 30.542969 10.3125 30.398438 10.339844 30.246094 10.375 L 30.246094 10.402344 L 30.273438 10.402344 C 30.375 10.59375 30.546875 10.738281 30.671875 10.914062 C 30.773438 11.113281 30.859375 11.3125 30.960938 11.511719 L 30.988281 11.484375 C 31.164062 11.359375 31.25 11.160156 31.25 10.859375 C 31.175781 10.773438 31.164062 10.683594 31.101562 10.597656 C 31.027344 10.472656 30.863281 10.410156 30.761719 10.3125 Z M 10.820312 35.054688 L 9.082031 35.054688 C 9.03125 32.289062 8.863281 29.53125 8.574219 26.785156 L 8.558594 26.785156 L 5.914062 35.054688 L 4.59375 35.054688 L 1.96875 26.785156 L 1.949219 26.785156 C 1.746094 29.535156 1.621094 32.292969 1.585938 35.054688 L 0 35.054688 C 0.101562 31.367188 0.359375 27.910156 0.769531 24.683594 L 2.925781 24.683594 L 5.429688 32.304688 L 5.441406 32.304688 L 7.96875 24.683594 L 10.023438 24.683594 C 10.476562 28.460938 10.742188 31.921875 10.824219 35.054688 Z M 18.351562 27.402344 C 17.640625 31.238281 16.707031 34.027344 15.554688 35.765625 C 14.648438 37.109375 13.660156 37.777344 12.585938 37.777344 C 12.296875 37.777344 11.949219 37.691406 11.523438 37.519531 L 11.523438 36.59375 C 11.730469 36.625 11.972656 36.640625 12.246094 36.640625 C 12.75 36.640625 13.152344 36.5 13.460938 36.226562 C 13.828125 35.886719 14.015625 35.507812 14.015625 35.089844 C 14.015625 34.800781 13.871094 34.210938 13.582031 33.320312 L 11.679688 27.402344 L 13.386719 27.402344 L 14.75 31.828125 C 15.058594 32.832031 15.1875 33.535156 15.136719 33.933594 C 15.886719 31.9375 16.40625 29.757812 16.699219 27.402344 Z M 41.460938 35.054688 L 36.527344 35.054688 L 36.527344 24.683594 L 38.1875 24.683594 L 38.1875 33.777344 L 41.460938 33.777344 Z M 35.234375 35.304688 L 33.328125 34.367188 C 33.5 34.226562 33.660156 34.074219 33.808594 33.898438 C 34.621094 32.953125 35.023438 31.542969 35.023438 29.675781 C 35.023438 26.246094 33.675781 24.527344 30.984375 24.527344 C 29.664062 24.527344 28.632812 24.960938 27.890625 25.832031 C 27.082031 26.785156 26.675781 28.1875 26.675781 30.042969 C 26.675781 31.867188 27.035156 33.203125 27.753906 34.054688 C 28.410156 34.824219 29.398438 35.207031 30.722656 35.207031 C 31.21875 35.207031 31.671875 35.148438 32.082031 35.023438 L 34.566406 36.472656 L 35.242188 35.304688 Z M 29.0625 32.976562 C 28.640625 32.300781 28.429688 31.214844 28.429688 29.722656 C 28.429688 27.109375 29.226562 25.804688 30.8125 25.804688 C 31.640625 25.804688 32.253906 26.117188 32.644531 26.742188 C 33.0625 27.421875 33.273438 28.496094 33.273438 29.972656 C 33.273438 32.605469 32.480469 33.925781 30.890625 33.925781 C 30.058594 33.925781 29.449219 33.609375 29.058594 32.988281 Z M 25.953125 32.179688 C 25.953125 33.0625 25.632812 33.785156 24.984375 34.347656 C 24.339844 34.910156 23.480469 35.191406 22.390625 35.191406 C 21.375 35.191406 20.394531 34.871094 19.441406 34.226562 L 19.886719 33.332031 C 20.707031 33.746094 21.449219 33.949219 22.117188 33.949219 C 22.738281 33.949219 23.230469 33.8125 23.585938 33.535156 C 23.945312 33.265625 24.15625 32.835938 24.148438 32.382812 C 24.148438 31.765625 23.71875 31.238281 22.933594 30.796875 C 22.207031 30.398438 20.753906 29.566406 20.753906 29.566406 C 19.960938 28.992188 19.566406 28.375 19.566406 27.359375 C 19.566406 26.515625 19.863281 25.839844 20.449219 25.324219 C 21.039062 24.804688 21.796875 24.546875 22.734375 24.546875 C 23.695312 24.546875 24.574219 24.800781 25.359375 25.316406 L 24.960938 26.207031 C 24.332031 25.933594 23.652344 25.785156 22.96875 25.777344 C 22.4375 25.777344 22.027344 25.90625 21.742188 26.164062 C 21.449219 26.40625 21.277344 26.765625 21.277344 27.144531 C 21.277344 27.761719 21.714844 28.289062 22.523438 28.738281 C 23.261719 29.144531 24.75 29.996094 24.75 29.996094 C 25.5625 30.566406 25.964844 31.175781 25.964844 32.1875 Z M 43.546875 21.207031 C 42.542969 21.183594 41.765625 21.28125 41.113281 21.5625 C 40.925781 21.636719 40.625 21.636719 40.597656 21.875 C 40.703125 21.972656 40.71875 22.136719 40.804688 22.273438 C 40.957031 22.527344 41.214844 22.863281 41.453125 23.039062 C 41.71875 23.246094 41.980469 23.441406 42.253906 23.621094 C 42.742188 23.917969 43.296875 24.097656 43.773438 24.398438 C 44.046875 24.574219 44.324219 24.796875 44.597656 24.984375 C 44.734375 25.078125 44.824219 25.25 45 25.308594 L 45 25.269531 C 44.914062 25.160156 44.886719 24.996094 44.804688 24.871094 C 44.675781 24.746094 44.550781 24.632812 44.429688 24.507812 C 44.058594 24.023438 43.621094 23.597656 43.125 23.242188 C 42.722656 22.96875 41.847656 22.585938 41.679688 22.125 L 41.65625 22.101562 C 41.929688 22.078125 42.257812 21.976562 42.519531 21.902344 C 42.945312 21.789062 43.335938 21.8125 43.777344 21.703125 C 43.972656 21.652344 44.175781 21.589844 44.375 21.527344 L 44.375 21.414062 C 44.152344 21.1875 43.980469 20.882812 43.75 20.671875 C 43.101562 20.105469 42.410156 19.589844 41.679688 19.128906 C 41.285156 18.878906 40.785156 18.71875 40.371094 18.503906 C 40.222656 18.429688 39.972656 18.390625 39.886719 18.265625 C 39.660156 17.992188 39.527344 17.628906 39.371094 17.300781 C 39 16.589844 38.660156 15.859375 38.34375 15.121094 C 38.117188 14.628906 37.980469 14.140625 37.707031 13.691406 C 36.414062 11.558594 35.011719 10.265625 32.859375 9.003906 C 32.394531 8.742188 31.839844 8.628906 31.253906 8.488281 C 30.9375 8.476562 30.625 8.453125 30.316406 8.4375 C 30.109375 8.351562 29.910156 8.113281 29.734375 8 C 29.019531 7.546875 27.175781 6.574219 26.652344 7.863281 C 26.3125 8.675781 27.152344 9.480469 27.441406 9.890625 C 27.65625 10.179688 27.929688 10.507812 28.078125 10.828125 C 28.167969 11.046875 28.191406 11.269531 28.28125 11.496094 C 28.480469 12.046875 28.667969 12.664062 28.929688 13.179688 C 29.066406 13.441406 29.21875 13.71875 29.394531 13.953125 C 29.496094 14.089844 29.667969 14.15625 29.707031 14.378906 C 29.53125 14.632812 29.519531 15.003906 29.417969 15.316406 C 28.96875 16.734375 29.144531 18.492188 29.78125 19.535156 C 29.984375 19.847656 30.460938 20.535156 31.101562 20.273438 C 31.664062 20.046875 31.539062 19.335938 31.699219 18.707031 C 31.738281 18.558594 31.714844 18.457031 31.789062 18.355469 L 31.789062 18.382812 C 31.96875 18.738281 32.144531 19.074219 32.304688 19.425781 C 32.691406 20.039062 33.367188 20.675781 33.929688 21.101562 C 34.230469 21.328125 34.46875 21.71875 34.84375 21.855469 L 34.84375 21.820312 L 34.816406 21.820312 C 34.734375 21.710938 34.628906 21.65625 34.527344 21.570312 C 34.289062 21.335938 34.070312 21.085938 33.871094 20.820312 C 33.339844 20.097656 32.875 19.335938 32.46875 18.535156 C 32.261719 18.140625 32.089844 17.71875 31.925781 17.332031 C 31.851562 17.179688 31.851562 16.957031 31.726562 16.878906 C 31.539062 17.15625 31.261719 17.390625 31.125 17.730469 C 30.886719 18.269531 30.863281 18.933594 30.773438 19.625 C 30.722656 19.636719 30.746094 19.625 30.722656 19.648438 C 30.320312 19.550781 30.183594 19.136719 30.035156 18.789062 C 29.660156 17.898438 29.597656 16.464844 29.921875 15.441406 C 30.007812 15.179688 30.382812 14.347656 30.234375 14.097656 C 30.15625 13.859375 29.90625 13.722656 29.769531 13.53125 C 29.59375 13.277344 29.445312 13.011719 29.320312 12.730469 C 29.019531 12.027344 28.871094 11.25 28.546875 10.550781 C 28.394531 10.226562 28.132812 9.886719 27.917969 9.589844 C 27.679688 9.25 27.417969 9.011719 27.230469 8.613281 C 27.167969 8.476562 27.078125 8.25 27.179688 8.101562 C 27.203125 8 27.257812 7.960938 27.355469 7.929688 C 27.519531 7.796875 27.984375 7.972656 28.144531 8.046875 C 28.609375 8.234375 29 8.410156 29.386719 8.671875 C 29.5625 8.796875 29.753906 9.035156 29.976562 9.097656 L 30.238281 9.097656 C 30.640625 9.1875 31.09375 9.125 31.46875 9.234375 C 32.132812 9.449219 32.734375 9.757812 33.273438 10.097656 C 34.929688 11.15625 36.277344 12.636719 37.179688 14.382812 C 37.332031 14.671875 37.398438 14.9375 37.535156 15.234375 C 37.796875 15.855469 38.121094 16.480469 38.386719 17.078125 C 38.648438 17.667969 38.902344 18.269531 39.28125 18.757812 C 39.46875 19.023438 40.21875 19.160156 40.558594 19.296875 C 40.808594 19.40625 41.195312 19.511719 41.421875 19.648438 C 41.851562 19.910156 42.273438 20.210938 42.675781 20.5 C 42.882812 20.640625 43.507812 20.953125 43.546875 21.207031 Z M 43.546875 21.207031 "/>
</g>
</svg>
