<?xml version="1.0" encoding="UTF-8"?>
<svg xmlns="http://www.w3.org/2000/svg" xmlns:xlink="http://www.w3.org/1999/xlink" width="45px" height="45px" viewBox="0 0 45 45" version="1.1">
<g id="surface1">
<path style=" stroke:none;fill-rule:nonzero;fill:rgb(37.254903%,62.7451%,30.588236%);fill-opacity:1;" d="M 22.496094 45 C 21.894531 45 21.292969 44.84375 20.765625 44.535156 L 15.261719 41.28125 C 14.441406 40.820312 14.84375 40.65625 15.113281 40.5625 C 16.210938 40.179688 16.429688 40.09375 17.601562 39.429688 C 17.722656 39.359375 17.886719 39.386719 18.011719 39.460938 L 22.242188 41.972656 C 22.394531 42.054688 22.609375 42.054688 22.75 41.972656 L 39.242188 32.453125 C 39.394531 32.367188 39.492188 32.191406 39.492188 32.007812 L 39.492188 12.976562 C 39.492188 12.792969 39.394531 12.617188 39.234375 12.523438 L 22.753906 3.011719 C 22.601562 2.925781 22.398438 2.925781 22.246094 3.011719 L 5.765625 12.523438 C 5.605469 12.617188 5.503906 12.796875 5.503906 12.976562 L 5.503906 32.007812 C 5.503906 32.191406 5.605469 32.363281 5.765625 32.449219 L 10.28125 35.058594 C 12.734375 36.285156 14.234375 34.839844 14.234375 33.390625 L 14.234375 14.601562 C 14.234375 14.335938 14.449219 14.125 14.714844 14.125 L 16.804688 14.125 C 17.066406 14.125 17.285156 14.335938 17.285156 14.601562 L 17.285156 33.390625 C 17.285156 36.660156 15.503906 38.535156 12.402344 38.535156 C 11.449219 38.535156 10.695312 38.535156 8.601562 37.503906 L 4.273438 35.015625 C 3.207031 34.398438 2.546875 33.242188 2.546875 32.007812 L 2.546875 12.976562 C 2.546875 11.742188 3.207031 10.585938 4.273438 9.972656 L 20.765625 0.441406 C 21.808594 -0.148438 23.195312 -0.148438 24.230469 0.441406 L 40.71875 9.972656 C 41.789062 10.589844 42.453125 11.742188 42.453125 12.976562 L 42.453125 32.007812 C 42.453125 33.242188 41.789062 34.394531 40.71875 35.015625 L 24.230469 44.535156 C 23.707031 44.84375 23.109375 45 22.496094 45 Z M 35.8125 26.238281 C 35.8125 22.675781 33.402344 21.726562 28.335938 21.054688 C 23.214844 20.378906 22.691406 20.027344 22.691406 18.832031 C 22.691406 17.839844 23.132812 16.519531 26.925781 16.519531 C 30.316406 16.519531 31.5625 17.25 32.078125 19.53125 C 32.121094 19.746094 32.320312 19.90625 32.539062 19.90625 L 34.679688 19.90625 C 34.8125 19.90625 34.9375 19.847656 35.027344 19.753906 C 35.117188 19.652344 35.167969 19.523438 35.15625 19.386719 C 34.824219 15.453125 32.207031 13.617188 26.925781 13.617188 C 22.222656 13.617188 19.417969 15.601562 19.417969 18.929688 C 19.417969 22.539062 22.210938 23.535156 26.722656 23.984375 C 32.121094 24.511719 32.539062 25.300781 32.539062 26.363281 C 32.539062 28.207031 31.0625 28.992188 27.585938 28.992188 C 23.222656 28.992188 22.265625 27.894531 21.941406 25.726562 C 21.902344 25.492188 21.703125 25.320312 21.46875 25.320312 L 19.335938 25.320312 C 19.070312 25.320312 18.859375 25.53125 18.859375 25.796875 C 18.859375 28.574219 20.371094 31.886719 27.585938 31.886719 C 32.8125 31.886719 35.8125 29.832031 35.8125 26.238281 Z M 35.8125 26.238281 "/>
</g>
</svg>
