<?xml version="1.0" encoding="UTF-8"?>
<svg xmlns="http://www.w3.org/2000/svg" xmlns:xlink="http://www.w3.org/1999/xlink" width="45px" height="45px" viewBox="0 0 45 45" version="1.1">
<g id="surface1">
<path style=" stroke:none;fill-rule:nonzero;fill:rgb(8.235294%,1.568628%,34.509805%);fill-opacity:1;" d="M 31.730469 0 L 36.648438 0 L 36.648438 33.945312 L 31.730469 33.945312 Z M 23.992188 24.261719 L 28.910156 24.261719 L 28.910156 29.082031 L 23.992188 29.082031 Z M 23.992188 11.066406 L 28.910156 11.066406 L 28.910156 21.28125 L 23.992188 21.28125 Z M 23.992188 32.0625 L 28.910156 32.0625 L 28.910156 42.273438 L 23.992188 42.273438 Z M 8.355469 11.054688 L 13.269531 11.054688 L 13.269531 45 L 8.351562 45 Z M 16.253906 15.851562 L 21.171875 15.851562 L 21.171875 20.671875 L 16.257812 20.671875 Z M 16.253906 23.636719 L 21.171875 23.636719 L 21.171875 33.847656 L 16.257812 33.847656 Z M 16.253906 2.660156 L 21.171875 2.660156 L 21.171875 12.871094 L 16.257812 12.871094 Z M 16.253906 2.660156 "/>
</g>
</svg>
