<?xml version="1.0" encoding="UTF-8"?>
<svg xmlns="http://www.w3.org/2000/svg" xmlns:xlink="http://www.w3.org/1999/xlink" width="45px" height="45px" viewBox="0 0 45 45" version="1.1">
<g id="surface1">
<path style=" stroke:none;fill-rule:nonzero;fill:rgb(46.666667%,48.235294%,70.588237%);fill-opacity:1;" d="M 13.144531 19.136719 L 11.375 19.136719 L 10.40625 24.101562 L 11.980469 24.101562 C 13.023438 24.101562 13.796875 23.90625 14.308594 23.515625 C 14.816406 23.121094 15.160156 22.464844 15.339844 21.546875 C 15.511719 20.667969 15.433594 20.042969 15.105469 19.683594 C 14.777344 19.320312 14.125 19.136719 13.144531 19.136719 Z M 22.5 10.664062 C 10.074219 10.664062 0 15.964844 0 22.5 C 0 29.035156 10.074219 34.335938 22.5 34.335938 C 34.925781 34.335938 45 29.035156 45 22.5 C 45 15.964844 34.925781 10.664062 22.5 10.664062 Z M 16.386719 24.636719 C 15.898438 25.105469 15.308594 25.457031 14.667969 25.667969 C 14.039062 25.871094 13.234375 25.976562 12.257812 25.976562 L 10.042969 25.976562 L 9.429688 29.128906 L 6.847656 29.128906 L 9.152344 17.265625 L 14.121094 17.265625 C 15.617188 17.265625 16.707031 17.660156 17.390625 18.445312 C 18.078125 19.226562 18.285156 20.324219 18.011719 21.730469 C 17.90625 22.285156 17.714844 22.820312 17.4375 23.316406 C 17.171875 23.796875 16.820312 24.234375 16.386719 24.636719 Z M 23.933594 25.976562 L 24.949219 20.726562 C 25.070312 20.132812 25.023438 19.722656 24.824219 19.507812 C 24.621094 19.289062 24.191406 19.179688 23.535156 19.179688 L 21.488281 19.179688 L 20.167969 25.976562 L 17.601562 25.976562 L 19.910156 14.113281 L 22.472656 14.113281 L 21.859375 17.269531 L 24.140625 17.269531 C 25.582031 17.269531 26.570312 17.519531 27.117188 18.019531 C 27.660156 18.519531 27.824219 19.332031 27.609375 20.457031 L 26.535156 25.976562 Z M 38.175781 21.730469 C 38.074219 22.285156 37.878906 22.824219 37.605469 23.316406 C 37.335938 23.796875 36.984375 24.234375 36.554688 24.636719 C 36.0625 25.101562 35.476562 25.457031 34.832031 25.667969 C 34.203125 25.871094 33.398438 25.976562 32.421875 25.976562 L 30.210938 25.976562 L 29.597656 29.128906 L 27.011719 29.128906 L 29.320312 17.269531 L 34.285156 17.269531 C 35.78125 17.269531 36.871094 17.660156 37.554688 18.445312 C 38.242188 19.226562 38.449219 20.324219 38.175781 21.730469 Z M 33.3125 19.136719 L 31.542969 19.136719 L 30.574219 24.101562 L 32.148438 24.101562 C 33.191406 24.101562 33.96875 23.90625 34.476562 23.515625 C 34.984375 23.121094 35.328125 22.464844 35.507812 21.546875 C 35.679688 20.667969 35.601562 20.042969 35.273438 19.683594 C 34.949219 19.320312 34.292969 19.136719 33.3125 19.136719 Z M 33.3125 19.136719 "/>
</g>
</svg>
