<?xml version="1.0" encoding="UTF-8"?>
<svg xmlns="http://www.w3.org/2000/svg" xmlns:xlink="http://www.w3.org/1999/xlink" width="45px" height="45px" viewBox="0 0 45 45" version="1.1">
<g id="surface1">
<path style=" stroke:none;fill-rule:nonzero;fill:rgb(100%,42.352942%,21.568628%);fill-opacity:1;" d="M 25.363281 0.1875 C 13.039062 -1.394531 1.765625 7.3125 0.1875 19.636719 C -1.394531 31.960938 7.3125 43.230469 19.636719 44.8125 C 31.960938 46.394531 43.234375 37.6875 44.8125 25.363281 C 46.394531 13.039062 37.6875 1.769531 25.363281 0.1875 Z M 29.996094 14.21875 C 29.578125 14.226562 29.179688 14.394531 28.882812 14.6875 L 20.535156 23.039062 L 19.960938 22.460938 L 18.753906 21.257812 C 26.984375 13.050781 28.464844 12.972656 29.996094 14.21875 Z M 20.878906 23.335938 L 29.203125 15.007812 C 29.5 14.699219 29.945312 14.574219 30.359375 14.691406 C 30.773438 14.808594 31.089844 15.148438 31.179688 15.566406 C 31.269531 15.988281 31.121094 16.425781 30.792969 16.703125 L 21.980469 24.4375 Z M 21.496094 24.636719 L 19.433594 25.082031 L 20.535156 23.675781 Z M 16.242188 23.773438 L 18.4375 21.578125 L 20.085938 23.222656 L 16.375 24.023438 Z M 9.40625 35.132812 L 9.320312 34.890625 L 11.09375 33.117188 L 13.386719 35.410156 Z M 13.953125 32.777344 L 14.113281 34.878906 L 13.710938 35.101562 L 11.960938 33.347656 L 11.410156 32.796875 L 18.464844 25.75 L 21.875 25.011719 L 23.515625 26.652344 C 21.160156 28.71875 17.945312 30.777344 13.953125 32.777344 Z M 23.851562 26.351562 L 23.847656 26.351562 L 22.273438 24.777344 L 31.082031 17.042969 C 31.164062 16.972656 31.238281 16.890625 31.308594 16.804688 C 31.03125 19.328125 27.503906 22.890625 23.851562 26.351562 Z M 30.707031 14.238281 L 30.703125 14.234375 C 29.414062 12.941406 29.371094 10.863281 30.605469 9.515625 C 31.835938 8.171875 33.910156 8.03125 35.3125 9.203125 L 32.292969 12.226562 L 34.632812 14.882812 C 33.320312 15.53125 31.742188 15.273438 30.707031 14.238281 Z M 35.539062 14.238281 C 35.386719 14.390625 35.214844 14.527344 35.03125 14.648438 L 32.765625 12.382812 L 35.640625 9.511719 C 36.882812 10.859375 36.835938 12.945312 35.539062 14.238281 Z M 35.351562 11.34375 C 35.390625 11.914062 35.351562 12.246094 35.15625 12.480469 C 35.882812 12.417969 35.945312 11.867188 35.71875 11.40625 Z M 35.351562 11.34375 "/>
</g>
</svg>
