<?xml version="1.0" encoding="UTF-8"?>
<svg xmlns="http://www.w3.org/2000/svg" xmlns:xlink="http://www.w3.org/1999/xlink" width="45px" height="45px" viewBox="0 0 45 45" version="1.1">
<g id="surface1">
<path style=" stroke:none;fill-rule:nonzero;fill:rgb(25.490198%,41.176471%,88.235295%);fill-opacity:1;" d="M 44.175781 27.605469 C 43.808594 26.886719 43.175781 26.742188 42.179688 26.945312 C 39.078125 27.585938 37.878906 27.191406 37.445312 26.910156 C 39.960938 23.070312 42.027344 18.433594 43.144531 14.105469 C 43.65625 12.136719 44.644531 7.5 43.375 5.234375 C 43.292969 5.078125 43.199219 4.929688 43.09375 4.792969 C 40.675781 1.703125 37.125 0.046875 32.832031 0 C 30.027344 -0.0273438 27.636719 0.648438 26.988281 0.898438 C 26.667969 0.839844 26.34375 0.789062 26.019531 0.746094 C 25.210938 0.601562 24.386719 0.519531 23.5625 0.507812 C 21.34375 0.472656 19.429688 1.003906 17.84375 2.082031 C 16.238281 1.480469 8.863281 -1 4.304688 2.230469 C 1.753906 4.035156 0.578125 7.261719 0.804688 11.820312 C 0.882812 13.355469 1.757812 18.070312 3.136719 22.589844 C 4 25.414062 4.894531 27.65625 5.824219 29.304688 C 6.859375 31.171875 7.933594 32.292969 9.039062 32.660156 C 9.875 32.941406 11.160156 32.929688 12.523438 31.296875 C 14.023438 29.488281 15.503906 27.875 16.167969 27.160156 C 16.984375 27.601562 17.867188 27.839844 18.773438 27.867188 C 18.617188 28.0625 18.460938 28.253906 18.3125 28.445312 C 17.675781 29.253906 17.542969 29.421875 15.5 29.839844 C 14.917969 29.960938 13.371094 30.28125 13.347656 31.363281 C 13.34375 31.59375 13.410156 31.796875 13.519531 31.976562 C 13.945312 32.769531 15.25 33.121094 15.425781 33.164062 C 17.925781 33.789062 20.121094 33.335938 21.746094 31.890625 C 21.714844 36.074219 21.890625 40.171875 22.394531 41.429688 C 22.808594 42.464844 23.820312 45 27.023438 45 C 27.492188 45 28.011719 44.945312 28.578125 44.824219 C 31.917969 44.105469 33.371094 42.628906 33.933594 39.375 C 34.214844 37.742188 34.683594 33.984375 34.941406 31.683594 C 34.972656 31.554688 35.007812 31.457031 35.050781 31.429688 C 35.050781 31.429688 35.179688 31.339844 35.851562 31.488281 L 36.410156 31.542969 L 36.4375 31.542969 C 38.023438 31.617188 40.019531 31.277344 41.183594 30.734375 C 42.390625 30.175781 44.570312 28.800781 44.175781 27.605469 Z M 4.445312 22.269531 C 3.050781 17.703125 2.238281 13.109375 2.171875 11.820312 C 1.96875 7.75 2.953125 4.914062 5.101562 3.398438 C 8.546875 0.960938 14.175781 2.382812 16.554688 3.152344 C 16.546875 3.160156 16.542969 3.164062 16.535156 3.171875 C 12.742188 7.003906 12.832031 13.550781 12.839844 13.953125 C 12.839844 14.105469 12.851562 14.324219 12.871094 14.625 C 12.9375 15.726562 13.058594 17.777344 12.734375 20.097656 C 12.429688 22.253906 13.097656 24.367188 14.558594 25.890625 C 14.707031 26.046875 14.867188 26.195312 15.03125 26.335938 C 14.378906 27.03125 12.964844 28.570312 11.460938 30.378906 C 10.398438 31.660156 9.664062 31.414062 9.421875 31.332031 C 8.6875 31.089844 7.898438 30.234375 7.101562 28.855469 C 6.199219 27.28125 5.292969 25.046875 4.445312 22.269531 Z M 15.710938 31.808594 C 15.386719 31.726562 15.097656 31.59375 14.898438 31.472656 C 15.066406 31.402344 15.34375 31.304688 15.804688 31.210938 C 18.210938 30.714844 18.582031 30.367188 19.394531 29.335938 C 19.582031 29.097656 19.789062 28.832031 20.082031 28.503906 C 20.542969 27.976562 20.730469 28.054688 21.039062 28.183594 C 21.332031 28.304688 21.617188 28.671875 21.734375 29.074219 C 21.789062 29.265625 21.847656 29.625 21.648438 29.90625 C 19.953125 32.28125 17.484375 32.25 15.710938 31.808594 Z M 19.636719 24.328125 L 19.535156 24.59375 C 19.289062 25.261719 19.054688 25.882812 18.910156 26.472656 C 17.660156 26.46875 16.441406 25.9375 15.515625 24.96875 C 14.339844 23.742188 13.804688 22.03125 14.050781 20.28125 C 14.394531 17.828125 14.265625 15.695312 14.199219 14.546875 C 14.1875 14.386719 14.179688 14.246094 14.175781 14.132812 C 14.730469 13.644531 17.296875 12.265625 19.128906 12.6875 C 19.964844 12.878906 20.476562 13.445312 20.6875 14.425781 C 21.785156 19.496094 20.832031 21.609375 20.070312 23.304688 C 19.910156 23.65625 19.761719 23.988281 19.636719 24.328125 Z M 33.441406 32.902344 C 33.410156 33.234375 33.375 33.609375 33.328125 34.019531 L 33.050781 34.84375 C 33.007812 35.933594 32.917969 36.261719 32.804688 36.671875 C 32.683594 37.101562 32.550781 37.589844 32.464844 38.65625 C 32.261719 41.308594 30.820312 42.832031 27.933594 43.449219 C 25.09375 44.058594 24.589844 42.519531 24.144531 41.160156 C 24.097656 41.015625 24.050781 40.875 24 40.734375 C 23.597656 39.636719 23.640625 38.085938 23.707031 35.945312 C 23.734375 34.890625 23.660156 32.378906 23.085938 30.980469 C 23.09375 30.433594 23.105469 29.875 23.121094 29.308594 C 23.074219 28.96875 23.046875 28.835938 23.011719 28.707031 C 22.78125 27.90625 22.222656 27.234375 21.546875 26.957031 C 21.28125 26.84375 20.792969 26.640625 20.203125 26.792969 C 20.328125 26.273438 20.546875 25.691406 20.78125 25.058594 L 20.882812 24.792969 C 20.992188 24.492188 21.132812 24.179688 21.28125 23.851562 C 22.082031 22.074219 23.175781 19.640625 21.988281 14.144531 C 21.542969 12.085938 20.054688 11.082031 17.800781 11.3125 C 16.449219 11.453125 15.214844 12 14.597656 12.3125 C 14.472656 12.375 14.351562 12.441406 14.230469 12.507812 C 14.402344 10.433594 15.050781 6.554688 17.484375 4.101562 C 17.664062 3.921875 17.855469 3.746094 18.054688 3.585938 C 19.734375 2.394531 21.5 1.871094 23.578125 1.902344 C 24.34375 1.917969 25.082031 1.96875 25.78125 2.054688 C 29.414062 2.71875 31.863281 4.769531 33.347656 6.523438 C 34.875 8.328125 35.699219 10.144531 36.03125 11.125 C 33.550781 10.871094 31.863281 11.363281 31.007812 12.585938 C 29.144531 15.246094 32.023438 20.410156 33.410156 22.890625 C 33.660156 23.347656 33.882812 23.738281 33.949219 23.90625 C 34.402344 25 34.984375 25.726562 35.410156 26.257812 C 35.539062 26.421875 35.667969 26.582031 35.761719 26.71875 C 35.011719 26.933594 33.660156 27.4375 33.785156 29.9375 C 33.761719 30.230469 33.707031 30.777344 33.628906 31.464844 C 33.542969 31.855469 33.496094 32.328125 33.441406 32.902344 Z M 35.113281 29.863281 C 35.035156 28.304688 35.617188 28.140625 36.230469 27.96875 C 36.316406 27.945312 36.398438 27.917969 36.484375 27.890625 C 36.5625 27.960938 36.648438 28.027344 36.734375 28.085938 C 37.804688 28.792969 39.703125 28.875 42.375 28.335938 C 41.996094 28.667969 41.398438 29.085938 40.585938 29.464844 C 39.816406 29.820312 38.53125 30.089844 37.308594 30.144531 C 35.960938 30.210938 35.273438 29.996094 35.113281 29.863281 Z M 36.179688 12.480469 C 36.167969 13.136719 36.078125 13.734375 35.980469 14.359375 C 35.878906 15.027344 35.773438 15.722656 35.746094 16.5625 C 35.71875 17.382812 35.820312 18.234375 35.921875 19.058594 C 36.121094 20.71875 36.324219 22.433594 35.53125 24.121094 C 35.398438 23.886719 35.28125 23.648438 35.179688 23.398438 C 35.082031 23.160156 34.867188 22.777344 34.570312 22.242188 C 33.414062 20.171875 30.710938 15.324219 32.097656 13.347656 C 32.808594 12.332031 34.609375 12.285156 36.179688 12.480469 Z M 36.609375 25.628906 C 36.554688 25.5625 36.5 25.496094 36.449219 25.429688 L 36.382812 25.34375 C 37.742188 23.097656 37.476562 20.871094 37.238281 18.898438 C 37.144531 18.089844 37.050781 17.324219 37.074219 16.605469 C 37.097656 15.84375 37.199219 15.191406 37.296875 14.558594 C 37.414062 13.78125 37.539062 12.976562 37.503906 12.027344 C 37.527344 11.929688 37.539062 11.8125 37.527344 11.671875 C 37.441406 10.761719 36.402344 8.039062 34.285156 5.570312 C 33.144531 4.246094 31.492188 2.765625 29.242188 1.75 C 30.226562 1.546875 31.554688 1.367188 33.039062 1.398438 C 36.882812 1.484375 39.925781 2.925781 42.082031 5.679688 C 43.5625 8.410156 41.691406 17.632812 36.609375 25.628906 Z M 20.078125 14.164062 C 20.03125 14.5 19.496094 14.953125 18.914062 14.953125 C 18.410156 14.894531 18.054688 14.675781 17.8125 14.351562 C 17.726562 14.238281 17.585938 14.019531 17.613281 13.820312 C 17.625 13.742188 17.664062 13.632812 17.789062 13.539062 C 18.007812 13.371094 18.449219 13.308594 18.929688 13.378906 C 19.523438 13.460938 20.136719 13.742188 20.078125 14.164062 Z M 34.945312 13.390625 C 34.96875 13.539062 34.855469 13.769531 34.660156 13.972656 C 34.53125 14.105469 34.261719 14.339844 33.894531 14.390625 C 33.203125 14.402344 32.738281 13.960938 32.703125 13.703125 C 32.65625 13.375 33.199219 13.121094 33.753906 13.042969 C 34.3125 12.964844 34.902344 13.058594 34.945312 13.390625 Z M 34.945312 13.390625 "/>
</g>
</svg>
