<?xml version="1.0" encoding="UTF-8"?>
<svg xmlns="http://www.w3.org/2000/svg" xmlns:xlink="http://www.w3.org/1999/xlink" width="45px" height="45px" viewBox="0 0 45 45" version="1.1">
<defs>
<linearGradient id="linear0" gradientUnits="userSpaceOnUse" x1="12.4809" y1="2" x2="12.4809" y2="22.7407" gradientTransform="matrix(1.40625,0,0,1.40625,0,0)">
<stop offset="0" style="stop-color:rgb(19.607843%,49.411765%,74.117647%);stop-opacity:1;"/>
<stop offset="1" style="stop-color:rgb(8.235294%,39.607843%,65.490196%);stop-opacity:1;"/>
</linearGradient>
<linearGradient id="linear1" gradientUnits="userSpaceOnUse" x1="19.518999" y1="9.25928" x2="19.518999" y2="30" gradientTransform="matrix(1.40625,0,0,1.40625,0,0)">
<stop offset="0" style="stop-color:rgb(100%,85.490196%,29.411765%);stop-opacity:1;"/>
<stop offset="1" style="stop-color:rgb(97.647059%,77.647059%,0%);stop-opacity:1;"/>
</linearGradient>
</defs>
<g id="surface1">
<path style=" stroke:none;fill-rule:evenodd;fill:url(#linear0);" d="M 18.304688 2.8125 C 15.214844 2.8125 12.710938 5.238281 12.710938 8.230469 L 12.710938 11.980469 L 22.390625 11.980469 L 22.390625 13.019531 L 8.40625 13.019531 C 5.316406 13.019531 2.8125 15.445312 2.8125 18.4375 L 2.8125 26.5625 C 2.8125 29.554688 5.316406 31.980469 8.40625 31.980469 L 11.632812 31.980469 L 11.632812 27.394531 C 11.632812 24.40625 14.140625 21.980469 17.230469 21.980469 L 27.554688 21.980469 C 30.171875 21.980469 32.289062 19.925781 32.289062 17.394531 L 32.289062 8.230469 C 32.289062 5.238281 29.785156 2.8125 26.695312 2.8125 Z M 17.011719 9.480469 C 18.082031 9.480469 18.949219 8.640625 18.949219 7.605469 C 18.949219 6.570312 18.082031 5.730469 17.011719 5.730469 C 15.945312 5.730469 15.078125 6.570312 15.078125 7.605469 C 15.078125 8.640625 15.945312 9.480469 17.011719 9.480469 Z M 17.011719 9.480469 "/>
<path style=" stroke:none;fill-rule:evenodd;fill:url(#linear1);" d="M 26.695312 42.1875 C 29.785156 42.1875 32.289062 39.761719 32.289062 36.769531 L 32.289062 33.019531 L 22.605469 33.019531 L 22.605469 31.980469 L 36.59375 31.980469 C 39.683594 31.980469 42.1875 29.554688 42.1875 26.5625 L 42.1875 18.4375 C 42.1875 15.445312 39.683594 13.019531 36.59375 13.019531 L 33.367188 13.019531 L 33.367188 17.605469 C 33.367188 20.597656 30.859375 23.019531 27.769531 23.019531 L 17.445312 23.019531 C 14.828125 23.019531 12.710938 25.074219 12.710938 27.605469 L 12.710938 36.769531 C 12.710938 39.761719 15.214844 42.1875 18.304688 42.1875 Z M 27.988281 35.519531 C 26.917969 35.519531 26.050781 36.359375 26.050781 37.394531 C 26.050781 38.429688 26.917969 39.269531 27.988281 39.269531 C 29.054688 39.269531 29.921875 38.429688 29.921875 37.394531 C 29.921875 36.359375 29.054688 35.519531 27.988281 35.519531 Z M 27.988281 35.519531 "/>
</g>
</svg>
