<?xml version="1.0" encoding="UTF-8"?>
<svg xmlns="http://www.w3.org/2000/svg" xmlns:xlink="http://www.w3.org/1999/xlink" width="45px" height="45px" viewBox="0 0 45 45" version="1.1">
<g id="surface1">
<path style=" stroke:none;fill-rule:nonzero;fill:rgb(38.039216%,85.490197%,98.431373%);fill-opacity:1;" d="M 26.679688 22.507812 C 26.679688 24.820312 24.804688 26.699219 22.492188 26.699219 C 20.175781 26.699219 18.296875 24.824219 18.296875 22.507812 C 18.296875 20.191406 20.175781 18.316406 22.488281 18.316406 C 24.804688 18.316406 26.679688 20.191406 26.679688 22.507812 Z M 31.644531 2.464844 C 29.121094 2.464844 25.820312 4.265625 22.480469 7.378906 C 19.144531 4.28125 15.839844 2.5 13.316406 2.5 C 12.550781 2.5 11.851562 2.675781 11.246094 3.023438 C 8.667969 4.507812 8.089844 9.140625 9.421875 14.957031 C 3.710938 16.71875 0 19.539062 0 22.507812 C 0 25.488281 3.730469 28.3125 9.457031 30.0625 C 8.136719 35.902344 8.722656 40.542969 11.308594 42.027344 C 11.90625 42.375 12.601562 42.542969 13.375 42.542969 C 15.894531 42.542969 19.199219 40.742188 22.539062 37.621094 C 25.875 40.722656 29.179688 42.503906 31.703125 42.503906 C 32.472656 42.503906 33.171875 42.332031 33.777344 41.988281 C 36.351562 40.5 36.933594 35.867188 35.601562 30.050781 C 41.289062 28.304688 45 25.480469 45 22.507812 C 45 19.527344 41.269531 16.699219 35.542969 14.949219 C 36.863281 9.117188 36.277344 4.472656 33.691406 2.984375 C 33.09375 2.640625 32.402344 2.464844 31.644531 2.464844 Z M 31.636719 4.507812 L 31.636719 4.519531 C 32.058594 4.519531 32.398438 4.601562 32.683594 4.757812 C 33.933594 5.472656 34.472656 8.199219 34.050781 11.703125 C 33.949219 12.5625 33.785156 13.472656 33.582031 14.402344 C 31.78125 13.960938 29.820312 13.621094 27.757812 13.402344 C 26.519531 11.703125 25.234375 10.164062 23.941406 8.8125 C 26.925781 6.039062 29.730469 4.515625 31.640625 4.507812 Z M 13.316406 4.546875 C 15.214844 4.546875 18.03125 6.058594 21.023438 8.820312 C 19.738281 10.171875 18.457031 11.703125 17.238281 13.398438 C 15.160156 13.617188 13.199219 13.957031 11.398438 14.40625 C 11.191406 13.488281 11.035156 12.601562 10.921875 11.746094 C 10.492188 8.242188 11.023438 5.519531 12.261719 4.792969 C 12.617188 4.625 13.011719 4.554688 13.316406 4.546875 Z M 22.472656 10.265625 C 23.324219 11.140625 24.179688 12.125 25.023438 13.195312 C 24.195312 13.160156 23.351562 13.132812 22.5 13.132812 C 21.636719 13.132812 20.785156 13.152344 19.949219 13.195312 C 20.773438 12.125 21.628906 11.140625 22.472656 10.261719 Z M 22.5 15.1875 C 23.886719 15.1875 25.269531 15.25 26.628906 15.363281 C 27.390625 16.453125 28.132812 17.617188 28.847656 18.847656 C 29.542969 20.050781 30.179688 21.269531 30.753906 22.5 C 30.179688 23.726562 29.542969 24.953125 28.855469 26.15625 C 28.144531 27.390625 27.40625 28.570312 26.644531 29.660156 C 25.277344 29.777344 23.894531 29.84375 22.5 29.84375 C 21.113281 29.84375 19.730469 29.777344 18.371094 29.671875 C 17.609375 28.578125 16.867188 27.414062 16.152344 26.183594 C 15.457031 24.984375 14.820312 23.765625 14.246094 22.535156 C 14.8125 21.300781 15.457031 20.070312 16.144531 18.871094 C 16.855469 17.632812 17.59375 16.457031 18.355469 15.367188 C 19.722656 15.246094 21.105469 15.183594 22.5 15.183594 Z M 15.683594 15.664062 C 15.234375 16.371094 14.785156 17.09375 14.363281 17.839844 C 13.941406 18.570312 13.546875 19.304688 13.171875 20.039062 C 12.675781 18.808594 12.253906 17.582031 11.90625 16.390625 C 13.105469 16.109375 14.371094 15.859375 15.683594 15.664062 Z M 29.296875 15.664062 C 30.601562 15.855469 31.855469 16.09375 33.058594 16.390625 C 32.71875 17.574219 32.296875 18.792969 31.820312 20.015625 C 31.445312 19.28125 31.050781 18.546875 30.621094 17.8125 C 30.199219 17.078125 29.75 16.359375 29.296875 15.664062 Z M 35.039062 16.929688 C 35.949219 17.210938 36.808594 17.523438 37.617188 17.863281 C 40.867188 19.25 42.964844 21.066406 42.964844 22.503906 C 42.957031 23.945312 40.855469 25.769531 37.609375 27.144531 C 36.820312 27.484375 35.957031 27.789062 35.066406 28.070312 C 34.542969 26.273438 33.855469 24.402344 33.003906 22.484375 C 33.847656 20.578125 34.523438 18.714844 35.039062 16.925781 Z M 9.925781 16.9375 C 10.445312 18.738281 11.132812 20.605469 11.988281 22.523438 C 11.144531 24.429688 10.464844 26.292969 9.949219 28.082031 C 9.042969 27.800781 8.179688 27.484375 7.382812 27.144531 C 4.132812 25.761719 2.035156 23.945312 2.035156 22.503906 C 2.035156 21.066406 4.132812 19.238281 7.382812 17.863281 C 8.167969 17.527344 9.03125 17.222656 9.925781 16.9375 Z M 31.820312 24.960938 C 32.316406 26.195312 32.738281 27.421875 33.089844 28.613281 C 31.886719 28.910156 30.621094 29.15625 29.308594 29.34375 C 29.757812 28.640625 30.207031 27.917969 30.628906 27.175781 C 31.050781 26.441406 31.445312 25.695312 31.824219 24.960938 Z M 13.171875 25 C 13.546875 25.734375 13.941406 26.46875 14.375 27.203125 C 14.804688 27.933594 15.246094 28.648438 15.695312 29.34375 C 14.390625 29.15625 13.136719 28.914062 11.933594 28.621094 C 12.273438 27.441406 12.695312 26.21875 13.171875 24.996094 Z M 33.601562 30.601562 C 33.808594 31.523438 33.976562 32.414062 34.078125 33.269531 C 34.507812 36.769531 33.976562 39.492188 32.738281 40.21875 C 32.460938 40.390625 32.105469 40.460938 31.683594 40.460938 C 29.785156 40.460938 26.96875 38.949219 23.976562 36.1875 C 25.261719 34.835938 26.542969 33.304688 27.761719 31.609375 C 29.839844 31.390625 31.800781 31.046875 33.601562 30.597656 Z M 11.417969 30.617188 C 13.21875 31.058594 15.179688 31.398438 17.246094 31.617188 C 18.480469 33.3125 19.765625 34.855469 21.058594 36.203125 C 18.070312 38.984375 15.261719 40.503906 13.355469 40.503906 C 12.941406 40.496094 12.59375 40.410156 12.316406 40.257812 C 11.066406 39.546875 10.527344 36.820312 10.949219 33.316406 C 11.050781 32.453125 11.214844 31.546875 11.417969 30.617188 Z M 19.96875 31.820312 C 20.792969 31.855469 21.636719 31.882812 22.492188 31.882812 C 23.351562 31.882812 24.207031 31.863281 25.039062 31.820312 C 24.214844 32.890625 23.363281 33.871094 22.519531 34.753906 C 21.664062 33.871094 20.8125 32.890625 19.96875 31.820312 Z M 19.96875 31.820312 "/>
</g>
</svg>
