<?xml version="1.0" encoding="UTF-8"?>
<svg xmlns="http://www.w3.org/2000/svg" xmlns:xlink="http://www.w3.org/1999/xlink" width="45px" height="45px" viewBox="0 0 45 45" version="1.1">
<g id="surface1">
<path style=" stroke:none;fill-rule:nonzero;fill:rgb(4.705882%,9.019608%,14.117648%);fill-opacity:1;" d="M 14.472656 16.835938 L 14.472656 25.792969 L 16.089844 25.792969 L 16.089844 16.835938 L 14.472656 16.835938 M 31.019531 16.835938 L 31.019531 25.792969 L 32.644531 25.792969 L 32.644531 22.5625 C 32.890625 22.847656 33.097656 23.183594 33.316406 23.488281 L 34.425781 25.027344 L 34.894531 25.675781 C 34.933594 25.734375 35.003906 25.882812 35.078125 25.902344 C 35.117188 25.914062 35.171875 25.882812 35.207031 25.871094 L 35.496094 25.769531 L 36.574219 25.394531 L 36.0625 24.75 L 35.03125 23.46875 L 34.433594 22.726562 L 34.121094 22.347656 L 34.121094 22.339844 C 34.3125 22.191406 34.476562 21.96875 34.636719 21.789062 L 35.5625 20.800781 L 36.007812 20.324219 C 36.066406 20.253906 36.148438 20.195312 36.1875 20.109375 C 35.886719 20.023438 35.589844 19.859375 35.304688 19.734375 C 35.230469 19.703125 35.046875 19.582031 34.972656 19.609375 C 34.917969 19.625 34.867188 19.714844 34.832031 19.753906 L 34.503906 20.132812 L 33.277344 21.554688 L 32.945312 21.941406 C 32.90625 21.988281 32.855469 22.070312 32.792969 22.09375 C 32.75 22.113281 32.691406 22.101562 32.644531 22.101562 L 32.644531 16.835938 L 31.019531 16.835938 M 38.359375 18.175781 C 38.28125 18.1875 38.203125 18.21875 38.136719 18.261719 C 37.675781 18.574219 37.949219 19.355469 38.511719 19.265625 C 38.597656 19.253906 38.675781 19.226562 38.75 19.175781 C 39.207031 18.859375 38.921875 18.089844 38.359375 18.175781 M 38.371094 18.261719 C 38.949219 18.179688 39.070312 19.105469 38.5 19.179688 C 37.9375 19.253906 37.8125 18.339844 38.371094 18.261719 M 38.242188 19.03125 L 38.339844 19.03125 L 38.339844 18.773438 C 38.398438 18.773438 38.464844 18.769531 38.503906 18.820312 C 38.585938 18.917969 38.511719 19.03125 38.671875 19.03125 C 38.652344 18.9375 38.652344 18.78125 38.542969 18.742188 C 38.578125 18.722656 38.609375 18.699219 38.632812 18.667969 C 38.769531 18.464844 38.390625 18.324219 38.261719 18.429688 C 38.226562 18.457031 38.242188 18.542969 38.242188 18.582031 L 38.242188 19.03125 M 38.339844 18.699219 C 38.339844 18.652344 38.320312 18.542969 38.351562 18.503906 C 38.441406 18.390625 38.691406 18.652344 38.457031 18.695312 C 38.417969 18.703125 38.378906 18.699219 38.339844 18.699219 M 2.355469 25.242188 C 2.707031 25.476562 3.03125 25.710938 3.441406 25.824219 C 4.484375 26.109375 5.964844 25.941406 6.5 24.867188 C 6.570312 24.730469 6.621094 24.585938 6.648438 24.4375 C 6.683594 24.230469 6.683594 24.019531 6.65625 23.8125 C 6.539062 22.941406 5.589844 22.425781 4.957031 21.933594 C 4.746094 21.769531 4.492188 21.59375 4.351562 21.355469 C 4.113281 20.957031 4.445312 20.554688 4.851562 20.480469 C 5.136719 20.429688 5.453125 20.5 5.710938 20.617188 C 5.832031 20.671875 5.941406 20.753906 6.058594 20.808594 C 6.164062 20.617188 6.289062 20.4375 6.402344 20.25 C 6.433594 20.203125 6.519531 20.101562 6.511719 20.046875 C 6.5 19.988281 6.355469 19.9375 6.304688 19.914062 C 6.082031 19.800781 5.855469 19.707031 5.617188 19.648438 C 4.703125 19.417969 3.488281 19.53125 2.9375 20.398438 C 2.847656 20.542969 2.78125 20.699219 2.742188 20.863281 C 2.710938 20.996094 2.695312 21.132812 2.699219 21.273438 C 2.710938 22.1875 3.566406 22.691406 4.21875 23.179688 C 4.621094 23.480469 5.125 23.808594 5.042969 24.382812 C 5.03125 24.46875 4.996094 24.554688 4.949219 24.628906 C 4.613281 25.171875 3.84375 25.015625 3.386719 24.746094 C 3.261719 24.671875 3.140625 24.585938 3.023438 24.492188 C 2.992188 24.46875 2.925781 24.398438 2.882812 24.402344 C 2.828125 24.410156 2.765625 24.566406 2.738281 24.609375 C 2.613281 24.816406 2.457031 25.023438 2.355469 25.242188 M 8.984375 20.570312 L 8.972656 19.691406 L 7.414062 19.691406 L 7.414062 28.851562 L 8.976562 28.851562 L 8.976562 24.984375 C 9.320312 25.328125 9.640625 25.679688 10.117188 25.839844 C 10.421875 25.941406 10.753906 25.957031 11.074219 25.933594 C 11.335938 25.914062 11.59375 25.859375 11.839844 25.769531 C 13.296875 25.234375 13.910156 23.589844 13.757812 22.144531 C 13.65625 21.207031 13.183594 20.277344 12.3125 19.835938 C 12.070312 19.71875 11.824219 19.628906 11.558594 19.585938 C 11.15625 19.519531 10.746094 19.535156 10.351562 19.632812 C 9.769531 19.78125 9.394531 20.15625 8.984375 20.574219 M 25.710938 20.507812 L 25.703125 20.507812 L 25.703125 19.925781 L 25.691406 19.707031 L 25.582031 19.691406 L 24.078125 19.691406 L 24.078125 25.792969 L 25.703125 25.792969 L 25.703125 22.984375 C 25.703125 22.464844 25.636719 21.890625 25.84375 21.402344 C 26.15625 20.644531 27.375 20.34375 27.960938 20.96875 C 28.335938 21.375 28.296875 21.988281 28.296875 22.5 L 28.296875 25.792969 L 29.910156 25.792969 L 29.910156 22.46875 C 29.910156 21.792969 29.953125 21.050781 29.605469 20.441406 C 28.984375 19.355469 27.292969 19.3125 26.335938 19.949219 C 26.132812 20.085938 25.828125 20.285156 25.710938 20.507812 M 17.144531 19.679688 L 17.144531 22.867188 C 17.144531 23.460938 17.078125 24.136719 17.285156 24.707031 C 17.378906 24.964844 17.511719 25.222656 17.714844 25.414062 C 18.359375 26.03125 19.488281 26.082031 20.289062 25.765625 C 20.710938 25.597656 21.035156 25.304688 21.351562 24.984375 L 21.351562 25.792969 L 22.96875 25.792969 L 22.96875 19.785156 L 22.949219 19.691406 L 22.828125 19.679688 L 21.351562 19.679688 L 21.351562 22.476562 C 21.351562 23.003906 21.414062 23.585938 21.195312 24.082031 C 21.089844 24.3125 20.921875 24.519531 20.707031 24.652344 C 20.21875 24.953125 19.414062 24.933594 19.039062 24.457031 C 18.746094 24.085938 18.757812 23.59375 18.757812 23.144531 L 18.757812 20.003906 C 18.757812 19.941406 18.792969 19.730469 18.742188 19.691406 C 18.714844 19.667969 18.652344 19.679688 18.617188 19.679688 L 17.144531 19.679688 M 37.960938 19.753906 L 37.960938 20.550781 L 37.972656 20.847656 L 38.265625 20.996094 L 39.027344 21.367188 L 40.535156 22.105469 L 41.742188 22.695312 L 40.652344 23.230469 L 38.972656 24.058594 L 38.253906 24.414062 L 37.972656 24.558594 L 37.960938 24.859375 L 37.960938 25.621094 C 38.09375 25.597656 38.230469 25.5 38.351562 25.441406 L 39.101562 25.066406 L 41.535156 23.859375 L 42.441406 23.40625 C 42.550781 23.351562 42.75 23.296875 42.832031 23.203125 C 42.875 23.15625 42.847656 23.023438 42.847656 22.960938 L 42.847656 22.457031 C 42.847656 22.386719 42.867188 22.292969 42.84375 22.222656 C 42.824219 22.148438 42.613281 22.082031 42.546875 22.050781 L 41.652344 21.605469 L 39.148438 20.34375 L 38.359375 19.945312 C 38.230469 19.882812 38.097656 19.792969 37.960938 19.757812 M 10.460938 20.511719 C 11.078125 20.4375 11.585938 20.847656 11.835938 21.378906 C 12.195312 22.148438 12.15625 23.21875 11.839844 23.996094 C 11.648438 24.472656 11.28125 24.929688 10.738281 24.984375 C 9.964844 25.0625 9.371094 24.609375 9.121094 23.886719 C 9.027344 23.617188 8.984375 23.324219 8.972656 23.039062 C 8.9375 22.183594 9.078125 21.035156 9.964844 20.628906 C 10.125 20.558594 10.289062 20.53125 10.460938 20.511719 Z M 10.460938 20.511719 "/>
</g>
</svg>
