<?xml version="1.0" encoding="UTF-8"?>
<svg xmlns="http://www.w3.org/2000/svg" xmlns:xlink="http://www.w3.org/1999/xlink" width="45px" height="45px" viewBox="0 0 45 45" version="1.1">
<g id="surface1">
<path style=" stroke:none;fill-rule:nonzero;fill:rgb(0%,23.137255%,34.117648%);fill-opacity:1;" d="M 40.644531 0.976562 C 38.710938 -0.75 36.371094 -0.0546875 34.058594 1.996094 C 33.703125 2.316406 33.359375 2.652344 33.035156 3 C 29.078125 7.195312 25.410156 14.960938 24.269531 20.894531 C 24.714844 21.796875 25.0625 22.945312 25.289062 23.820312 C 25.40625 24.257812 25.507812 24.699219 25.597656 25.140625 C 25.597656 25.140625 25.5625 25.007812 25.417969 24.585938 L 25.324219 24.3125 C 25.304688 24.261719 25.285156 24.210938 25.261719 24.160156 C 25.003906 23.5625 24.289062 22.296875 23.976562 21.746094 C 23.707031 22.539062 23.46875 23.277344 23.269531 23.949219 C 24.179688 25.605469 24.730469 28.449219 24.730469 28.449219 C 24.730469 28.449219 24.683594 28.265625 24.453125 27.621094 C 24.253906 27.050781 23.246094 25.289062 23.007812 24.875 C 22.597656 26.382812 22.4375 27.398438 22.582031 27.648438 C 22.867188 28.125 23.136719 28.957031 23.375 29.871094 C 23.910156 31.933594 24.28125 34.445312 24.28125 34.445312 L 24.316406 34.867188 C 24.246094 36.582031 24.28125 38.304688 24.421875 40.019531 C 24.597656 42.167969 24.933594 44.011719 25.359375 45 L 25.648438 44.84375 C 25.023438 42.894531 24.765625 40.34375 24.878906 37.40625 C 25.046875 32.90625 26.082031 27.484375 27.992188 21.835938 C 31.222656 13.304688 35.707031 6.457031 39.804688 3.1875 C 36.070312 6.5625 31.007812 17.492188 29.492188 21.539062 C 27.796875 26.070312 26.597656 30.324219 25.875 34.398438 C 27.121094 30.578125 31.164062 28.9375 31.164062 28.9375 C 31.164062 28.9375 33.144531 26.492188 35.460938 23 C 34.074219 23.316406 31.792969 23.859375 31.03125 24.179688 C 29.90625 24.652344 29.601562 24.8125 29.601562 24.8125 C 29.601562 24.8125 33.25 22.59375 36.375 21.585938 C 40.679688 14.8125 45.367188 5.1875 40.644531 0.976562 M 5.820312 1.996094 C 3.925781 2.003906 2.386719 3.539062 2.382812 5.4375 L 2.382812 36.578125 C 2.386719 38.476562 3.925781 40.011719 5.820312 40.015625 L 23.480469 40.015625 C 23.347656 38.328125 23.316406 36.632812 23.382812 34.941406 C 23.371094 34.824219 23.363281 34.675781 23.351562 34.566406 C 23.125 33.066406 22.828125 31.578125 22.464844 30.105469 C 22.238281 29.226562 21.949219 28.421875 21.773438 28.125 C 21.558594 27.753906 21.589844 27.542969 21.59375 27.316406 C 21.59375 27.089844 21.621094 26.855469 21.660156 26.589844 C 21.773438 25.929688 21.917969 25.277344 22.101562 24.632812 L 22.507812 24.578125 C 22.476562 24.515625 22.480469 24.457031 22.449219 24.398438 L 22.371094 23.683594 C 22.597656 22.933594 22.835938 22.1875 23.089844 21.445312 L 23.464844 21.410156 C 23.449219 21.378906 23.445312 21.335938 23.429688 21.308594 L 23.347656 20.71875 C 24.53125 14.566406 28.199219 6.761719 32.347656 2.359375 C 32.472656 2.230469 32.597656 2.117188 32.71875 1.996094 Z M 5.820312 1.996094 "/>
</g>
</svg>
