<?xml version="1.0" encoding="UTF-8"?>
<svg xmlns="http://www.w3.org/2000/svg" xmlns:xlink="http://www.w3.org/1999/xlink" width="45px" height="45px" viewBox="0 0 45 45" version="1.1">
<g id="surface1">
<path style=" stroke:none;fill-rule:nonzero;fill:rgb(2.352941%,71.372551%,83.137256%);fill-opacity:1;" d="M 22.5 9 C 16.5 9 12.75 12 11.25 18 C 13.5 15 16.125 13.875 19.125 14.625 C 20.839844 15.050781 22.0625 16.292969 23.417969 17.671875 C 25.625 19.910156 28.175781 22.5 33.75 22.5 C 39.75 22.5 43.5 19.5 45 13.5 C 42.75 16.5 40.125 17.625 37.125 16.875 C 35.414062 16.449219 34.191406 15.207031 32.835938 13.828125 C 30.632812 11.589844 28.078125 9 22.5 9 Z M 11.25 22.5 C 5.25 22.5 1.5 25.5 0 31.5 C 2.25 28.5 4.875 27.375 7.875 28.125 C 9.589844 28.550781 10.8125 29.792969 12.167969 31.171875 C 14.375 33.410156 16.925781 36 22.5 36 C 28.5 36 32.25 33 33.75 27 C 31.5 30 28.875 31.125 25.875 30.375 C 24.164062 29.949219 22.941406 28.707031 21.585938 27.328125 C 19.382812 25.089844 16.828125 22.5 11.25 22.5 Z M 11.25 22.5 "/>
</g>
</svg>
