<?xml version="1.0" encoding="UTF-8"?>
<svg xmlns="http://www.w3.org/2000/svg" xmlns:xlink="http://www.w3.org/1999/xlink" width="45px" height="45px" viewBox="0 0 45 45" version="1.1">
<g id="surface1">
<path style=" stroke:none;fill-rule:nonzero;fill:rgb(19.215687%,47.058824%,77.64706%);fill-opacity:1;" d="M 2.109375 0 C 0.941406 0 0 0.941406 0 2.109375 L 0 42.890625 C 0 44.058594 0.941406 45 2.109375 45 L 42.890625 45 C 44.058594 45 45 44.058594 45 42.890625 L 45 2.109375 C 45 0.941406 44.058594 0 42.890625 0 Z M 34.664062 18.28125 C 35.8125 18.28125 36.828125 18.351562 37.714844 18.488281 C 38.550781 18.613281 39.371094 18.828125 40.164062 19.125 L 40.164062 23.734375 C 39.785156 23.472656 39.378906 23.246094 38.957031 23.058594 C 38.523438 22.863281 38.074219 22.699219 37.613281 22.570312 C 36.742188 22.328125 35.84375 22.203125 34.941406 22.195312 C 34.378906 22.195312 33.867188 22.25 33.40625 22.359375 C 32.992188 22.445312 32.597656 22.597656 32.238281 22.8125 C 31.917969 23.007812 31.675781 23.242188 31.5 23.511719 C 31.324219 23.785156 31.234375 24.105469 31.238281 24.429688 C 31.238281 24.796875 31.335938 25.128906 31.53125 25.421875 C 31.726562 25.714844 32.003906 25.992188 32.359375 26.253906 C 32.71875 26.519531 33.152344 26.773438 33.664062 27.023438 C 34.175781 27.277344 34.757812 27.539062 35.402344 27.804688 C 36.28125 28.171875 37.074219 28.566406 37.777344 28.980469 C 38.476562 29.398438 39.078125 29.867188 39.582031 30.394531 C 40.082031 30.917969 40.464844 31.515625 40.734375 32.1875 C 41 32.859375 41.132812 33.644531 41.132812 34.539062 C 41.132812 35.769531 40.898438 36.804688 40.433594 37.640625 C 39.980469 38.46875 39.328125 39.167969 38.535156 39.675781 C 37.683594 40.21875 36.738281 40.597656 35.75 40.792969 C 34.6875 41.019531 33.566406 41.132812 32.390625 41.132812 C 31.234375 41.136719 30.082031 41.035156 28.941406 40.824219 C 27.957031 40.652344 27.003906 40.34375 26.109375 39.898438 L 26.109375 34.96875 C 27.800781 36.410156 29.953125 37.207031 32.175781 37.21875 C 32.800781 37.21875 33.347656 37.164062 33.8125 37.050781 C 34.277344 36.9375 34.667969 36.78125 34.980469 36.582031 C 35.292969 36.378906 35.523438 36.140625 35.679688 35.867188 C 36.03125 35.21875 35.976562 34.425781 35.539062 33.828125 C 35.261719 33.457031 34.921875 33.140625 34.535156 32.890625 C 34.054688 32.570312 33.546875 32.292969 33.019531 32.058594 C 32.398438 31.773438 31.765625 31.5 31.132812 31.238281 C 29.410156 30.519531 28.128906 29.640625 27.28125 28.605469 C 26.4375 27.566406 26.015625 26.3125 26.015625 24.84375 C 26.015625 23.695312 26.246094 22.707031 26.707031 21.878906 C 27.167969 21.050781 27.796875 20.371094 28.589844 19.835938 C 29.429688 19.28125 30.363281 18.882812 31.347656 18.65625 C 32.433594 18.402344 33.546875 18.273438 34.664062 18.28125 Z M 6.328125 18.632812 L 24.257812 18.632812 L 24.257812 22.695312 L 17.824219 22.695312 L 17.824219 40.78125 L 12.730469 40.78125 L 12.730469 22.695312 L 6.328125 22.695312 Z M 6.328125 18.632812 "/>
</g>
</svg>
